<svg version="1.2" baseProfile="tiny" id="EdgeSVG_kdcmV" x="0px" y="0px" width="101.44px" height="58.583px" viewBox="0 0 101.44 58.583" xmlns:xlink="http://www.w3.org/1999/xlink" xmlns="http://www.w3.org/2000/svg">
  <linearGradient id="SVGID_1_" gradientUnits="userSpaceOnUse" x1="0" y1="29.2915" x2="101.4399" y2="29.2915">
    <stop offset="0" style="stop-color:#000000;stop-opacity:0.5"/>
    <stop offset="1" style="stop-color:#000000;stop-opacity:0.5"/>
  </linearGradient>
  <path style="fill:url(#SVGID_1_);" d="M2.72,58.583c-1.5,0-2.72-1.22-2.72-2.72V2.72C0,1.22,1.22,0,2.72,0h96&#xD;&#xA;&#x9;c1.5,0,2.72,1.22,2.72,2.72v53.143c0,1.5-1.22,2.72-2.72,2.72H2.72z"/>
  <path style="fill:#FFFFFF;" d="M100.72,1.846c-0.327-0.661-1.003-1.123-1.787-1.123H50.695v57.143h48.238&#xD;&#xA;&#x9;c0.784,0,1.46-0.461,1.787-1.123V1.846z"/>
  <path style="fill:#179452;" d="M2.72,57.863h47.975V0.72H2.72c-1.1,0-2,0.9-2,2v53.143C0.72,56.963,1.62,57.863,2.72,57.863z"/>
  <path style="fill:#DE1819;" d="M64.793,38.069c-2.928,4.682-8.136,7.791-14.065,7.791c-9.15,0-16.568-7.417-16.568-16.568&#xD;&#xA;&#x9;c0-9.15,7.417-16.568,16.568-16.568c5.93,0,11.138,3.109,14.065,7.792c-2.305-2.395-5.538-3.892-9.124-3.892&#xD;&#xA;&#x9;c-6.998,0-12.671,5.672-12.671,12.669c0,6.998,5.673,12.67,12.671,12.67C59.255,41.961,62.489,40.464,64.793,38.069z M60.045,21.542&#xD;&#xA;&#x9;l-3.442,4.805l-5.67-1.818l3.536,4.81l-3.485,4.787l5.625-1.865l3.492,4.788l-0.015-5.958l5.63-1.798l-5.648-1.81L60.045,21.542z"/>
</svg>