<svg version="1.2" baseProfile="tiny" id="EdgeSVG_2doPl" x="0px" y="0px" width="101.44px" height="58.583px" viewBox="0 0 101.44 58.583" xmlns:xlink="http://www.w3.org/1999/xlink" xmlns="http://www.w3.org/2000/svg">
  <linearGradient id="SVGID_1_" gradientUnits="userSpaceOnUse" x1="0" y1="29.2915" x2="101.4399" y2="29.2915">
    <stop offset="0" style="stop-color:#000000;stop-opacity:0.5"/>
    <stop offset="1" style="stop-color:#000000;stop-opacity:0.5"/>
  </linearGradient>
  <path fill="url(#SVGID_1_)" d="M2.72,58.583c-1.5,0-2.72-1.22-2.72-2.72V2.72C0,1.22,1.22,0,2.72,0h96c1.5,0,2.72,1.22,2.72,2.72&#xD;&#xA;&#x9;v53.143c0,1.5-1.22,2.72-2.72,2.72H2.72z"/>
  <path fill="#003876" d="M98.72,0.72h-96c-1.1,0-2,0.9-2,2v53.143c0,1.1,0.9,2,2,2h96c1.1,0,2-0.9,2-2V2.72&#xD;&#xA;&#x9;C100.72,1.62,99.82,0.72,98.72,0.72z"/>
  <path fill="#FFFFFF" d="M21.505,20.884v8.405h8.307v-8.405l14.752,8.405h6.086v-3.474l-10.598-6.047H50.65V10.24H40.052L50.65,4.192&#xD;&#xA;&#x9;V0.72h-6.086L29.812,9.125V0.72h-8.307v8.405L6.754,0.72H2.72c-1.1,0-2,0.9-2,2v1.472l10.546,6.048H0.72v9.527h10.546L0.72,25.815&#xD;&#xA;&#x9;v3.474h6.034L21.505,20.884z"/>
  <polygon fill="#E03A3E" points="46.725,0.72 30.06,10.247 34.048,10.247 50.65,0.72 "/>
  <polygon fill="#E03A3E" points="50.65,29.289 34.031,19.768 38.039,19.768 50.65,27.019 "/>
  <path fill="#E03A3E" d="M17.417,10.247L1.488,1.159C1.025,1.525,0.72,2.086,0.72,2.72v0.275l12.673,7.252H17.417z"/>
  <polygon fill="#E03A3E" points="17.383,19.768 0.72,29.289 4.707,29.289 21.373,19.768 "/>
  <polygon fill="#E03A3E" points="0.72,12.216 23.275,12.216 23.275,0.72 28.156,0.72 28.156,12.216 50.65,12.216 50.65,17.796 &#xD;&#xA;&#x9;28.156,17.796 28.156,29.289 23.275,29.289 23.275,17.796 0.72,17.796 "/>
  <g>
    <path fill="#009370" stroke="#000000" stroke-width="0.0475" d="M84.327,14.473c0,0,0,9.408,0,12.904&#xD;&#xA;&#x9;&#x9;c0,3.497-0.355,4.662-2.435,5.745c-2.084,1.082-4.886,2.58-6.176,3.164c-1.29-0.584-4.065-2.082-6.147-3.164&#xD;&#xA;&#x9;&#x9;c-2.081-1.083-2.435-2.248-2.435-5.745c0-3.497,0-12.904,0-12.904H84.327z"/>
    <g>
      <path fill="#FFE992" stroke="#000000" stroke-width="0.0475" d="M75.709,39.095c4.242,0,7.087-2.22,9.031-4.128&#xD;&#xA;&#x9;&#x9;&#x9;c0.375,0.26,0.554,0.996,1.188,0.986c0.79-0.013,1.298-0.587,1.373-1.083c0.105-0.687-0.354-1.001-0.75-1.374&#xD;&#xA;&#x9;&#x9;&#x9;c-0.354-0.333-1.012-1.128-1.229-1.415c-0.311-0.417-0.778-0.567-1.457,0.249c-1.206,1.458-4.245,4.413-8.157,4.413&#xD;&#xA;&#x9;&#x9;&#x9;c-3.913,0-6.951-2.956-8.157-4.413c-0.679-0.816-1.146-0.666-1.457-0.249c-0.217,0.286-0.875,1.082-1.229,1.415&#xD;&#xA;&#x9;&#x9;&#x9;c-0.396,0.373-0.855,0.688-0.75,1.374c0.074,0.495,0.583,1.07,1.373,1.083c0.635,0.01,0.813-0.726,1.188-0.986&#xD;&#xA;&#x9;&#x9;&#x9;C68.623,36.875,71.466,39.095,75.709,39.095z"/>
      <g>
        <path fill="none" stroke="#000000" stroke-width="0.0475" d="M64.21,34.225c0.427-0.792,1.084-0.678,1.653-0.083&#xD;&#xA;&#x9;&#x9;&#x9;&#x9;c0.251,0.26,0.526,0.542,0.813,0.825"/>
        <path fill="none" stroke="#000000" stroke-width="0.0475" d="M65.74,34.038c-0.115,0.167-0.468,0.562-0.645,0.696&#xD;&#xA;&#x9;&#x9;&#x9;&#x9;c0.384-0.114,0.801,0.25,0.874,0.521c0.072,0.27-0.011,0.614-0.292,0.677"/>
        <path fill="none" stroke="#000000" stroke-width="0.0475" d="M87.208,34.225c-0.427-0.792-1.084-0.678-1.654-0.083&#xD;&#xA;&#x9;&#x9;&#x9;&#x9;c-0.25,0.26-0.525,0.542-0.813,0.825"/>
        <path fill="none" stroke="#000000" stroke-width="0.0475" d="M85.678,34.038c0.116,0.167,0.469,0.562,0.646,0.696&#xD;&#xA;&#x9;&#x9;&#x9;&#x9;c-0.386-0.114-0.801,0.25-0.875,0.521c-0.072,0.27,0.012,0.614,0.293,0.677"/>
      </g>
    </g>
    <g>
      <g>
        <path d="M68.505,34.274c0.042-0.145,0.02-0.166-0.047-0.23l0.032-0.037l0.588,0.502l-0.031,0.036&#xD;&#xA;&#x9;&#x9;&#x9;&#x9;c-0.08-0.061-0.204-0.16-0.259,0.018l-0.274,0.889l0.811-0.409c0.2-0.107,0.074-0.196-0.008-0.27l0.03-0.037l0.379,0.323&#xD;&#xA;&#x9;&#x9;&#x9;&#x9;l-0.032,0.037c-0.075-0.057-0.083-0.08-0.219-0.009l-1.365,0.695l-0.057-0.048L68.505,34.274z"/>
      </g>
      <g>
        <path d="M70.137,36.972c-0.068,0.114,0.019,0.204,0.1,0.273l-0.022,0.039l-0.717-0.438l0.022-0.04&#xD;&#xA;&#x9;&#x9;&#x9;&#x9;c0.098,0.041,0.22,0.078,0.289-0.037l0.598-0.974c0.069-0.114-0.02-0.207-0.1-0.275l0.023-0.039l0.718,0.439l-0.024,0.04&#xD;&#xA;&#x9;&#x9;&#x9;&#x9;c-0.099-0.042-0.219-0.079-0.288,0.036L70.137,36.972z"/>
      </g>
      <g>
        <path d="M72.02,38.12c-0.458-0.164-0.703-0.556-0.526-1.05c0.172-0.478,0.627-0.611,1.024-0.469&#xD;&#xA;&#x9;&#x9;&#x9;&#x9;c0.181,0.065,0.279,0.156,0.361,0.227c0.078,0.072,0.138,0.031,0.185-0.011l0.062,0.021l-0.176,0.487l-0.06-0.022&#xD;&#xA;&#x9;&#x9;&#x9;&#x9;c-0.002-0.385-0.202-0.565-0.401-0.636c-0.115-0.042-0.408-0.077-0.627,0.534c-0.22,0.609-0.007,0.777,0.184,0.846&#xD;&#xA;&#x9;&#x9;&#x9;&#x9;c0.096,0.034,0.233,0.045,0.271-0.056c0.037-0.101,0.089-0.246,0.104-0.286c0.042-0.121-0.031-0.176-0.119-0.227l0.016-0.042&#xD;&#xA;&#x9;&#x9;&#x9;&#x9;l0.708,0.255l-0.014,0.041c-0.101-0.016-0.2-0.021-0.243,0.101c-0.046,0.127-0.133,0.372-0.133,0.372&#xD;&#xA;&#x9;&#x9;&#x9;&#x9;C72.467,38.239,72.185,38.18,72.02,38.12z"/>
      </g>
      <g>
        <path d="M74.479,38.465c-0.019,0.132,0.1,0.179,0.202,0.208l-0.006,0.046l-0.835-0.105l0.006-0.045&#xD;&#xA;&#x9;&#x9;&#x9;&#x9;c0.105-0.003,0.232-0.019,0.248-0.152l0.144-1.134c0.016-0.132-0.102-0.179-0.204-0.208l0.006-0.045l0.835,0.104l-0.006,0.045&#xD;&#xA;&#x9;&#x9;&#x9;&#x9;c-0.107,0.003-0.232,0.02-0.249,0.152L74.479,38.465z"/>
      </g>
      <g>
        <path d="M76.484,37.135l0.003,0.045c-0.104,0.025-0.202,0.063-0.194,0.197l0.081,1.112c0.01,0.132,0.073,0.169,0.146,0.164&#xD;&#xA;&#x9;&#x9;&#x9;&#x9;c0.062-0.005,0.125-0.009,0.204-0.015c0.18-0.013,0.408-0.162,0.463-0.485l0.067-0.004l-0.057,0.537l-1.387,0.101l-0.003-0.046&#xD;&#xA;&#x9;&#x9;&#x9;&#x9;c0.103-0.023,0.223-0.065,0.215-0.198l-0.085-1.139c-0.009-0.134-0.112-0.158-0.216-0.167l-0.004-0.046L76.484,37.135z"/>
      </g>
      <g>
        <path d="M79.003,37.668l-0.447,0.146c0.03-0.397,0.045-0.612,0.045-0.612S78.617,37.223,79.003,37.668l0.07,0.082&#xD;&#xA;&#x9;&#x9;&#x9;&#x9;c0.05,0.058,0.104,0.122,0.165,0.192c0.095,0.126,0.003,0.177-0.143,0.249l0.014,0.043l0.753-0.245l-0.014-0.043&#xD;&#xA;&#x9;&#x9;&#x9;&#x9;c-0.161,0.027-0.2-0.05-0.264-0.128c-0.912-1.057-0.957-1.106-0.957-1.106l-0.08,0.025c0,0-0.003,0.016-0.122,1.473&#xD;&#xA;&#x9;&#x9;&#x9;&#x9;c-0.014,0.105-0.058,0.208-0.127,0.242l0.015,0.043l0.455-0.148l-0.013-0.044c-0.138,0.015-0.244,0.037-0.228-0.162&#xD;&#xA;&#x9;&#x9;&#x9;&#x9;c0.009-0.076,0.014-0.151,0.02-0.218l0.525-0.172L79.003,37.668z"/>
      </g>
      <g>
        <path d="M81.098,37.37l-0.022-0.039c0.066-0.061,0.137-0.139,0.067-0.255l-0.661-1.102l-0.073,0.043&#xD;&#xA;&#x9;&#x9;&#x9;&#x9;c-0.143,0.086-0.248,0.314-0.127,0.515l-0.046,0.027L80,36.165l1.204-0.723l0.237,0.394l-0.045,0.027&#xD;&#xA;&#x9;&#x9;&#x9;&#x9;c-0.119-0.201-0.372-0.215-0.515-0.129l-0.073,0.042l0.662,1.102c0.07,0.117,0.171,0.091,0.256,0.061l0.023,0.04L81.098,37.37z"/>
      </g>
      <g>
        <path d="M82.125,35.033c-0.086-0.102-0.199-0.047-0.291,0.011l-0.03-0.036l1.065-0.92l0.325,0.376l-0.047,0.042&#xD;&#xA;&#x9;&#x9;&#x9;&#x9;c-0.201-0.233-0.479-0.146-0.593-0.049c-0.057,0.05-0.125,0.107-0.173,0.149c-0.041,0.036-0.047,0.071,0.04,0.172&#xD;&#xA;&#x9;&#x9;&#x9;&#x9;c0.064,0.073,0.342,0.396,0.342,0.396c0.071-0.062,0.273-0.194,0.085-0.511l0.034-0.03l0.514,0.595l-0.042,0.036&#xD;&#xA;&#x9;&#x9;&#x9;&#x9;c-0.291-0.282-0.466-0.09-0.537-0.028l0.351,0.405c0.088,0.102,0.123,0.101,0.163,0.065c0.05-0.042,0.114-0.1,0.172-0.149&#xD;&#xA;&#x9;&#x9;&#x9;&#x9;c0.138-0.118,0.243-0.323,0.125-0.667l0.054-0.046l0.231,0.454l-1.065,0.92l-0.03-0.034c0.07-0.082,0.143-0.186,0.054-0.287&#xD;&#xA;&#x9;&#x9;&#x9;&#x9;L82.125,35.033z"/>
      </g>
    </g>
    <g>
      <path fill="#F9AA53" stroke="#000000" stroke-width="0.0239" d="M68.722,14.874c0.202,0.125,0.148,0.23,0.248,0.391&#xD;&#xA;&#x9;&#x9;&#x9;c0.131,0.208-0.087,0.296,0.017,0.5c0.051,0.101,0.067,0.295-0.042,0.364c-0.198,0.125-0.061,0.257-0.161,0.337&#xD;&#xA;&#x9;&#x9;&#x9;c-0.067,0.055-0.072,0.094-0.082,0.151c-0.037-0.13-0.164-0.26-0.096-0.38c0.068-0.12,0.079-0.244,0.017-0.327&#xD;&#xA;&#x9;&#x9;&#x9;c-0.063-0.083-0.1-0.369-0.017-0.505C68.691,15.27,68.816,15.03,68.722,14.874z"/>
      <path fill="#FFE01B" stroke="#000000" stroke-width="0.0239" d="M70.214,14.988c-0.192,0-0.192,0.286,0,0.286&#xD;&#xA;&#x9;&#x9;&#x9;C70.408,15.274,70.41,14.988,70.214,14.988z"/>
      <path fill="#FFE01B" stroke="#000000" stroke-width="0.0239" d="M70.047,15.229c-0.134,0.017-0.108,0.216,0.024,0.199&#xD;&#xA;&#x9;&#x9;&#x9;C70.207,15.412,70.183,15.213,70.047,15.229z"/>
      <path fill="#FFE01B" stroke="#000000" stroke-width="0.0239" d="M69.92,15.391c-0.134,0.017-0.109,0.217,0.024,0.2&#xD;&#xA;&#x9;&#x9;&#x9;C70.08,15.575,70.056,15.375,69.92,15.391z"/>
      <path fill="#FFE01B" stroke="#000000" stroke-width="0.0239" d="M69.794,15.554c-0.135,0.017-0.109,0.215,0.023,0.199&#xD;&#xA;&#x9;&#x9;&#x9;C69.953,15.737,69.929,15.537,69.794,15.554z"/>
      <path fill="#FFE01B" stroke="#000000" stroke-width="0.0239" d="M69.667,15.715c-0.135,0.017-0.109,0.217,0.024,0.2&#xD;&#xA;&#x9;&#x9;&#x9;S69.802,15.699,69.667,15.715z"/>
      <path fill="#FFE01B" stroke="#000000" stroke-width="0.0239" d="M69.541,15.878c-0.135,0.016-0.109,0.215,0.024,0.199&#xD;&#xA;&#x9;&#x9;&#x9;C69.698,16.061,69.675,15.861,69.541,15.878z"/>
      <path fill="#FFE01B" stroke="#000000" stroke-width="0.0239" d="M69.413,16.04c-0.133,0.016-0.108,0.215,0.025,0.2&#xD;&#xA;&#x9;&#x9;&#x9;C69.572,16.223,69.548,16.023,69.413,16.04z"/>
      <path fill="#FFE01B" stroke="#000000" stroke-width="0.0239" d="M69.286,16.202c-0.134,0.016-0.108,0.215,0.024,0.199&#xD;&#xA;&#x9;&#x9;&#x9;C69.445,16.385,69.421,16.185,69.286,16.202z"/>
      <path fill="#FFE01B" stroke="#000000" stroke-width="0.0239" d="M69.159,16.364c-0.134,0.016-0.109,0.215,0.025,0.2&#xD;&#xA;&#x9;&#x9;&#x9;C69.318,16.547,69.296,16.348,69.159,16.364z"/>
      <path fill="#FFE01B" stroke="#000000" stroke-width="0.0239" d="M70.382,15.229c0.134,0.017,0.108,0.216-0.025,0.199&#xD;&#xA;&#x9;&#x9;&#x9;C70.224,15.412,70.247,15.213,70.382,15.229z"/>
      <path fill="#FFE01B" stroke="#000000" stroke-width="0.0239" d="M70.509,15.391c0.133,0.017,0.108,0.217-0.026,0.2&#xD;&#xA;&#x9;&#x9;&#x9;C70.35,15.575,70.374,15.375,70.509,15.391z"/>
      <path fill="#FFE01B" stroke="#000000" stroke-width="0.0239" d="M70.635,15.554c0.135,0.017,0.109,0.215-0.024,0.199&#xD;&#xA;&#x9;&#x9;&#x9;C70.477,15.737,70.5,15.537,70.635,15.554z"/>
      <path fill="#FFE01B" stroke="#000000" stroke-width="0.0239" d="M70.762,15.715c0.135,0.017,0.11,0.217-0.024,0.2&#xD;&#xA;&#x9;&#x9;&#x9;C70.604,15.899,70.626,15.699,70.762,15.715z"/>
      <path fill="#FFE01B" stroke="#000000" stroke-width="0.0239" d="M70.889,15.878c0.134,0.016,0.109,0.215-0.024,0.199&#xD;&#xA;&#x9;&#x9;&#x9;C70.73,16.061,70.753,15.861,70.889,15.878z"/>
      <path fill="#FFE01B" stroke="#000000" stroke-width="0.0239" d="M71.016,16.04c0.134,0.016,0.109,0.215-0.024,0.2&#xD;&#xA;&#x9;&#x9;&#x9;C70.857,16.223,70.88,16.023,71.016,16.04z"/>
      <path fill="#FFE01B" stroke="#000000" stroke-width="0.0239" d="M71.142,16.202c0.135,0.016,0.11,0.215-0.023,0.199&#xD;&#xA;&#x9;&#x9;&#x9;C70.985,16.385,71.008,16.185,71.142,16.202z"/>
      <path fill="#FFE01B" stroke="#000000" stroke-width="0.0239" d="M71.27,16.364c0.134,0.016,0.108,0.215-0.025,0.2&#xD;&#xA;&#x9;&#x9;&#x9;C71.112,16.547,71.135,16.348,71.27,16.364z"/>
      <path fill="#FFE01B" stroke="#000000" stroke-width="0.0239" d="M71.758,16.875c-0.12,0.031-0.188,0.104-0.154,0.174"/>
      <path fill="#FFE01B" stroke="#000000" stroke-width="0.0239" d="M70.611,17.163c0.124,0.075,0.219,0.164,0.257,0.223&#xD;&#xA;&#x9;&#x9;&#x9;c0.038,0.058-0.044,0.168-0.655,0.168c-0.612,0-0.694-0.111-0.657-0.168c0.038-0.059,0.136-0.148,0.257-0.223"/>
      <path fill="#FFE01B" stroke="#000000" stroke-width="0.0239" d="M70.214,15.758c-0.229,0-0.229,0.342,0,0.342&#xD;&#xA;&#x9;&#x9;&#x9;C70.446,16.101,70.448,15.758,70.214,15.758z"/>
      <path fill="#FFE01B" stroke="#000000" stroke-width="0.0239" d="M70.745,16.602c-0.347-0.125-0.53-0.531-0.53-0.676&#xD;&#xA;&#x9;&#x9;&#x9;c0,0.145-0.183,0.552-0.53,0.676H70.745z"/>
      <path fill="#FFE01B" stroke="#000000" stroke-width="0.0239" d="M69.148,16.565c-0.192,0-0.479-0.031-0.754-0.031&#xD;&#xA;&#x9;&#x9;&#x9;c0,0.172,0.15,0.359,0.874,0.359C69.241,16.835,69.148,16.716,69.148,16.565z"/>
      <path fill="none" stroke="#E03A3E" stroke-width="0.0239" d="M68.826,15.186c0.072,0.239-0.1,0.287,0,0.479"/>
      <path fill="none" stroke="#E03A3E" stroke-width="0.0239" d="M68.883,15.868c0.015,0.192-0.188,0.224-0.161,0.448"/>
      <path fill="#FFE01B" stroke="#000000" stroke-width="0.0239" d="M69.049,16.565c0,0,1.853,0,2.069,0&#xD;&#xA;&#x9;&#x9;&#x9;c0.22,0,0.407-0.14,0.563-0.322c0.157-0.183,0.584-0.276,0.651,0.057c0.067,0.333-0.271,0.496-0.574,0.576&#xD;&#xA;&#x9;&#x9;&#x9;c0.104,0.049,0.072,0.185-0.038,0.244c-0.115,0.063-0.209,0.008-0.236-0.054c-0.03-0.074-0.002-0.22,0.207-0.291&#xD;&#xA;&#x9;&#x9;&#x9;c0.194-0.068,0.46-0.234,0.37-0.386c-0.087-0.151-0.322,0.032-0.468,0.244c-0.203,0.297-0.515,0.573-0.937,0.573&#xD;&#xA;&#x9;&#x9;&#x9;c-0.274,0-0.448,0-0.682,0C69.741,17.205,69.085,16.945,69.049,16.565z"/>
    </g>
    <g>
      <path fill="#F9AA53" stroke="#000000" stroke-width="0.0239" d="M68.722,17.865c0.202,0.126,0.148,0.23,0.248,0.391&#xD;&#xA;&#x9;&#x9;&#x9;c0.131,0.208-0.087,0.296,0.017,0.499c0.051,0.101,0.067,0.296-0.042,0.365c-0.198,0.125-0.061,0.257-0.161,0.339&#xD;&#xA;&#x9;&#x9;&#x9;c-0.067,0.054-0.072,0.092-0.082,0.15c-0.037-0.13-0.164-0.26-0.096-0.38c0.068-0.12,0.079-0.245,0.017-0.328&#xD;&#xA;&#x9;&#x9;&#x9;c-0.063-0.084-0.1-0.37-0.017-0.505C68.691,18.26,68.816,18.021,68.722,17.865z"/>
      <path fill="#FFE01B" stroke="#000000" stroke-width="0.0239" d="M70.214,17.979c-0.192,0-0.192,0.287,0,0.287&#xD;&#xA;&#x9;&#x9;&#x9;C70.408,18.266,70.41,17.979,70.214,17.979z"/>
      <path fill="#FFE01B" stroke="#000000" stroke-width="0.0239" d="M70.047,18.221c-0.134,0.016-0.108,0.216,0.024,0.199&#xD;&#xA;&#x9;&#x9;&#x9;C70.207,18.403,70.183,18.204,70.047,18.221z"/>
      <path fill="#FFE01B" stroke="#000000" stroke-width="0.0239" d="M69.92,18.383c-0.134,0.016-0.109,0.215,0.024,0.2&#xD;&#xA;&#x9;&#x9;&#x9;C70.08,18.566,70.056,18.366,69.92,18.383z"/>
      <path fill="#FFE01B" stroke="#000000" stroke-width="0.0239" d="M69.794,18.545c-0.135,0.016-0.109,0.216,0.023,0.199&#xD;&#xA;&#x9;&#x9;&#x9;C69.953,18.728,69.929,18.528,69.794,18.545z"/>
      <path fill="#FFE01B" stroke="#000000" stroke-width="0.0239" d="M69.667,18.707c-0.135,0.016-0.109,0.215,0.024,0.199&#xD;&#xA;&#x9;&#x9;&#x9;C69.826,18.89,69.802,18.69,69.667,18.707z"/>
      <path fill="#FFE01B" stroke="#000000" stroke-width="0.0239" d="M69.541,18.869c-0.135,0.016-0.109,0.215,0.024,0.199&#xD;&#xA;&#x9;&#x9;&#x9;C69.698,19.052,69.675,18.853,69.541,18.869z"/>
      <path fill="#FFE01B" stroke="#000000" stroke-width="0.0239" d="M69.413,19.03c-0.133,0.017-0.108,0.216,0.025,0.2&#xD;&#xA;&#x9;&#x9;&#x9;C69.572,19.214,69.548,19.014,69.413,19.03z"/>
      <path fill="#FFE01B" stroke="#000000" stroke-width="0.0239" d="M69.286,19.193c-0.134,0.016-0.108,0.215,0.024,0.199&#xD;&#xA;&#x9;&#x9;&#x9;C69.445,19.376,69.421,19.177,69.286,19.193z"/>
      <path fill="#FFE01B" stroke="#000000" stroke-width="0.0239" d="M69.159,19.354c-0.134,0.017-0.109,0.217,0.025,0.2&#xD;&#xA;&#x9;&#x9;&#x9;C69.318,19.538,69.296,19.338,69.159,19.354z"/>
      <path fill="#FFE01B" stroke="#000000" stroke-width="0.0239" d="M70.382,18.221c0.134,0.016,0.108,0.216-0.025,0.199&#xD;&#xA;&#x9;&#x9;&#x9;C70.224,18.403,70.247,18.204,70.382,18.221z"/>
      <path fill="#FFE01B" stroke="#000000" stroke-width="0.0239" d="M70.509,18.383c0.133,0.016,0.108,0.215-0.026,0.2&#xD;&#xA;&#x9;&#x9;&#x9;C70.35,18.566,70.374,18.366,70.509,18.383z"/>
      <path fill="#FFE01B" stroke="#000000" stroke-width="0.0239" d="M70.635,18.545c0.135,0.016,0.109,0.216-0.024,0.199&#xD;&#xA;&#x9;&#x9;&#x9;S70.5,18.528,70.635,18.545z"/>
      <path fill="#FFE01B" stroke="#000000" stroke-width="0.0239" d="M70.762,18.707c0.135,0.016,0.11,0.215-0.024,0.199&#xD;&#xA;&#x9;&#x9;&#x9;C70.604,18.89,70.626,18.69,70.762,18.707z"/>
      <path fill="#FFE01B" stroke="#000000" stroke-width="0.0239" d="M70.889,18.869c0.134,0.016,0.109,0.215-0.024,0.199&#xD;&#xA;&#x9;&#x9;&#x9;C70.73,19.052,70.753,18.853,70.889,18.869z"/>
      <path fill="#FFE01B" stroke="#000000" stroke-width="0.0239" d="M71.016,19.03c0.134,0.017,0.109,0.216-0.024,0.2&#xD;&#xA;&#x9;&#x9;&#x9;C70.857,19.214,70.88,19.014,71.016,19.03z"/>
      <path fill="#FFE01B" stroke="#000000" stroke-width="0.0239" d="M71.142,19.193c0.135,0.016,0.11,0.215-0.023,0.199&#xD;&#xA;&#x9;&#x9;&#x9;C70.985,19.376,71.008,19.177,71.142,19.193z"/>
      <path fill="#FFE01B" stroke="#000000" stroke-width="0.0239" d="M71.27,19.354c0.134,0.017,0.108,0.217-0.025,0.2&#xD;&#xA;&#x9;&#x9;&#x9;C71.112,19.538,71.135,19.338,71.27,19.354z"/>
      <path fill="#FFE01B" stroke="#000000" stroke-width="0.0239" d="M71.758,19.866c-0.12,0.031-0.188,0.104-0.154,0.174"/>
      <path fill="#FFE01B" stroke="#000000" stroke-width="0.0239" d="M70.611,20.154c0.124,0.075,0.219,0.164,0.257,0.222&#xD;&#xA;&#x9;&#x9;&#x9;c0.038,0.059-0.044,0.169-0.655,0.169c-0.612,0-0.694-0.111-0.657-0.169c0.038-0.058,0.136-0.147,0.257-0.222"/>
      <path fill="#FFE01B" stroke="#000000" stroke-width="0.0239" d="M70.214,18.75c-0.229,0-0.229,0.342,0,0.342&#xD;&#xA;&#x9;&#x9;&#x9;C70.446,19.091,70.448,18.75,70.214,18.75z"/>
      <path fill="#FFE01B" stroke="#000000" stroke-width="0.0239" d="M70.745,19.592c-0.347-0.125-0.53-0.53-0.53-0.676&#xD;&#xA;&#x9;&#x9;&#x9;c0,0.146-0.183,0.552-0.53,0.676H70.745z"/>
      <path fill="#FFE01B" stroke="#000000" stroke-width="0.0239" d="M69.148,19.556c-0.192,0-0.479-0.031-0.754-0.031&#xD;&#xA;&#x9;&#x9;&#x9;c0,0.172,0.15,0.358,0.874,0.358C69.241,19.826,69.148,19.707,69.148,19.556z"/>
      <path fill="none" stroke="#E03A3E" stroke-width="0.0239" d="M68.826,18.177c0.072,0.239-0.1,0.286,0,0.479"/>
      <path fill="none" stroke="#E03A3E" stroke-width="0.0239" d="M68.883,18.858c0.015,0.193-0.188,0.224-0.161,0.448"/>
      <path fill="#FFE01B" stroke="#000000" stroke-width="0.0239" d="M69.049,19.556c0,0,1.853,0,2.069,0&#xD;&#xA;&#x9;&#x9;&#x9;c0.22,0,0.407-0.141,0.563-0.322c0.157-0.183,0.584-0.276,0.651,0.057c0.067,0.333-0.271,0.495-0.574,0.575&#xD;&#xA;&#x9;&#x9;&#x9;c0.104,0.05,0.072,0.185-0.038,0.244c-0.115,0.063-0.209,0.008-0.236-0.055c-0.03-0.073-0.002-0.219,0.207-0.292&#xD;&#xA;&#x9;&#x9;&#x9;c0.194-0.067,0.46-0.234,0.37-0.384c-0.087-0.151-0.322,0.033-0.468,0.245c-0.203,0.296-0.515,0.572-0.937,0.572&#xD;&#xA;&#x9;&#x9;&#x9;c-0.274,0-0.448,0-0.682,0C69.741,20.197,69.085,19.936,69.049,19.556z"/>
    </g>
    <g>
      <path fill="#F9AA53" stroke="#000000" stroke-width="0.0239" d="M68.722,20.856c0.202,0.124,0.148,0.229,0.248,0.39&#xD;&#xA;&#x9;&#x9;&#x9;c0.131,0.208-0.087,0.296,0.017,0.5c0.051,0.1,0.067,0.295-0.042,0.364c-0.198,0.125-0.061,0.257-0.161,0.338&#xD;&#xA;&#x9;&#x9;&#x9;c-0.067,0.055-0.072,0.095-0.082,0.152c-0.037-0.13-0.164-0.261-0.096-0.38s0.079-0.244,0.017-0.328&#xD;&#xA;&#x9;&#x9;&#x9;c-0.063-0.083-0.1-0.369-0.017-0.505C68.691,21.251,68.816,21.013,68.722,20.856z"/>
      <path fill="#FFE01B" stroke="#000000" stroke-width="0.0239" d="M70.214,20.97c-0.192,0-0.192,0.287,0,0.287&#xD;&#xA;&#x9;&#x9;&#x9;C70.408,21.257,70.41,20.97,70.214,20.97z"/>
      <path fill="#FFE01B" stroke="#000000" stroke-width="0.0239" d="M70.047,21.211c-0.134,0.017-0.108,0.216,0.024,0.2&#xD;&#xA;&#x9;&#x9;&#x9;C70.207,21.394,70.183,21.194,70.047,21.211z"/>
      <path fill="#FFE01B" stroke="#000000" stroke-width="0.0239" d="M69.92,21.374c-0.134,0.016-0.109,0.215,0.024,0.2&#xD;&#xA;&#x9;&#x9;&#x9;C70.08,21.557,70.056,21.357,69.92,21.374z"/>
      <path fill="#FFE01B" stroke="#000000" stroke-width="0.0239" d="M69.794,21.535c-0.135,0.017-0.109,0.216,0.023,0.2&#xD;&#xA;&#x9;&#x9;&#x9;C69.953,21.719,69.929,21.519,69.794,21.535z"/>
      <path fill="#FFE01B" stroke="#000000" stroke-width="0.0239" d="M69.667,21.698c-0.135,0.016-0.109,0.215,0.024,0.199&#xD;&#xA;&#x9;&#x9;&#x9;C69.826,21.881,69.802,21.682,69.667,21.698z"/>
      <path fill="#FFE01B" stroke="#000000" stroke-width="0.0239" d="M69.541,21.859c-0.135,0.017-0.109,0.216,0.024,0.2&#xD;&#xA;&#x9;&#x9;&#x9;C69.698,22.042,69.675,21.843,69.541,21.859z"/>
      <path fill="#FFE01B" stroke="#000000" stroke-width="0.0239" d="M69.413,22.022c-0.133,0.016-0.108,0.214,0.025,0.199&#xD;&#xA;&#x9;&#x9;&#x9;C69.572,22.206,69.548,22.005,69.413,22.022z"/>
      <path fill="#FFE01B" stroke="#000000" stroke-width="0.0239" d="M69.286,22.184c-0.134,0.017-0.108,0.216,0.024,0.2&#xD;&#xA;&#x9;&#x9;&#x9;C69.445,22.367,69.421,22.167,69.286,22.184z"/>
      <path fill="#FFE01B" stroke="#000000" stroke-width="0.0239" d="M69.159,22.346c-0.134,0.016-0.109,0.215,0.025,0.2&#xD;&#xA;&#x9;&#x9;&#x9;C69.318,22.53,69.296,22.33,69.159,22.346z"/>
      <path fill="#FFE01B" stroke="#000000" stroke-width="0.0239" d="M70.382,21.211c0.134,0.017,0.108,0.216-0.025,0.2&#xD;&#xA;&#x9;&#x9;&#x9;C70.224,21.394,70.247,21.194,70.382,21.211z"/>
      <path fill="#FFE01B" stroke="#000000" stroke-width="0.0239" d="M70.509,21.374c0.133,0.016,0.108,0.215-0.026,0.2&#xD;&#xA;&#x9;&#x9;&#x9;C70.35,21.557,70.374,21.357,70.509,21.374z"/>
      <path fill="#FFE01B" stroke="#000000" stroke-width="0.0239" d="M70.635,21.535c0.135,0.017,0.109,0.216-0.024,0.2&#xD;&#xA;&#x9;&#x9;&#x9;C70.477,21.719,70.5,21.519,70.635,21.535z"/>
      <path fill="#FFE01B" stroke="#000000" stroke-width="0.0239" d="M70.762,21.698c0.135,0.016,0.11,0.215-0.024,0.199&#xD;&#xA;&#x9;&#x9;&#x9;C70.604,21.881,70.626,21.682,70.762,21.698z"/>
      <path fill="#FFE01B" stroke="#000000" stroke-width="0.0239" d="M70.889,21.859c0.134,0.017,0.109,0.216-0.024,0.2&#xD;&#xA;&#x9;&#x9;&#x9;C70.73,22.042,70.753,21.843,70.889,21.859z"/>
      <path fill="#FFE01B" stroke="#000000" stroke-width="0.0239" d="M71.016,22.022c0.134,0.016,0.109,0.214-0.024,0.199&#xD;&#xA;&#x9;&#x9;&#x9;C70.857,22.206,70.88,22.005,71.016,22.022z"/>
      <path fill="#FFE01B" stroke="#000000" stroke-width="0.0239" d="M71.142,22.184c0.135,0.017,0.11,0.216-0.023,0.2&#xD;&#xA;&#x9;&#x9;&#x9;S71.008,22.167,71.142,22.184z"/>
      <path fill="#FFE01B" stroke="#000000" stroke-width="0.0239" d="M71.27,22.346c0.134,0.016,0.108,0.215-0.025,0.2&#xD;&#xA;&#x9;&#x9;&#x9;C71.112,22.53,71.135,22.33,71.27,22.346z"/>
      <path fill="#FFE01B" stroke="#000000" stroke-width="0.0239" d="M71.758,22.856c-0.12,0.032-0.188,0.104-0.154,0.175"/>
      <path fill="#FFE01B" stroke="#000000" stroke-width="0.0239" d="M70.611,23.145c0.124,0.075,0.219,0.164,0.257,0.222&#xD;&#xA;&#x9;&#x9;&#x9;c0.038,0.058-0.044,0.169-0.655,0.169c-0.612,0-0.694-0.111-0.657-0.169c0.038-0.058,0.136-0.147,0.257-0.222"/>
      <path fill="#FFE01B" stroke="#000000" stroke-width="0.0239" d="M70.214,21.74c-0.229,0-0.229,0.343,0,0.343&#xD;&#xA;&#x9;&#x9;&#x9;C70.446,22.083,70.448,21.74,70.214,21.74z"/>
      <path fill="#FFE01B" stroke="#000000" stroke-width="0.0239" d="M70.745,22.583c-0.347-0.125-0.53-0.531-0.53-0.676&#xD;&#xA;&#x9;&#x9;&#x9;c0,0.146-0.183,0.551-0.53,0.676H70.745z"/>
      <path fill="#FFE01B" stroke="#000000" stroke-width="0.0239" d="M69.148,22.547c-0.192,0-0.479-0.032-0.754-0.032&#xD;&#xA;&#x9;&#x9;&#x9;c0,0.172,0.15,0.36,0.874,0.36C69.241,22.817,69.148,22.698,69.148,22.547z"/>
      <path fill="none" stroke="#E03A3E" stroke-width="0.0239" d="M68.826,21.167c0.072,0.241-0.1,0.287,0,0.48"/>
      <path fill="none" stroke="#E03A3E" stroke-width="0.0239" d="M68.883,21.85c0.015,0.193-0.188,0.224-0.161,0.448"/>
      <path fill="#FFE01B" stroke="#000000" stroke-width="0.0239" d="M69.049,22.547c0,0,1.853,0,2.069,0&#xD;&#xA;&#x9;&#x9;&#x9;c0.22,0,0.407-0.141,0.563-0.323c0.157-0.182,0.584-0.275,0.651,0.058s-0.271,0.496-0.574,0.575&#xD;&#xA;&#x9;&#x9;&#x9;c0.104,0.049,0.072,0.186-0.038,0.245c-0.115,0.063-0.209,0.008-0.236-0.054c-0.03-0.074-0.002-0.22,0.207-0.292&#xD;&#xA;&#x9;&#x9;&#x9;c0.194-0.067,0.46-0.234,0.37-0.384c-0.087-0.151-0.322,0.032-0.468,0.244c-0.203,0.296-0.515,0.572-0.937,0.572&#xD;&#xA;&#x9;&#x9;&#x9;c-0.274,0-0.448,0-0.682,0C69.741,23.187,69.085,22.927,69.049,22.547z"/>
    </g>
    <g>
      <path fill="#F9AA53" stroke="#000000" stroke-width="0.0239" d="M68.722,26.838c0.202,0.125,0.148,0.23,0.248,0.391&#xD;&#xA;&#x9;&#x9;&#x9;c0.131,0.208-0.087,0.296,0.017,0.5c0.051,0.1,0.067,0.296-0.042,0.364c-0.198,0.125-0.061,0.257-0.161,0.338&#xD;&#xA;&#x9;&#x9;&#x9;c-0.067,0.055-0.072,0.093-0.082,0.15c-0.037-0.13-0.164-0.26-0.096-0.379s0.079-0.245,0.017-0.328&#xD;&#xA;&#x9;&#x9;&#x9;c-0.063-0.083-0.1-0.37-0.017-0.505C68.691,27.233,68.816,26.995,68.722,26.838z"/>
      <path fill="#FFE01B" stroke="#000000" stroke-width="0.0239" d="M70.214,26.952c-0.192,0-0.192,0.288,0,0.288&#xD;&#xA;&#x9;&#x9;&#x9;C70.408,27.239,70.41,26.952,70.214,26.952z"/>
      <path fill="#FFE01B" stroke="#000000" stroke-width="0.0239" d="M70.047,27.193c-0.134,0.017-0.108,0.216,0.024,0.2&#xD;&#xA;&#x9;&#x9;&#x9;C70.207,27.376,70.183,27.177,70.047,27.193z"/>
      <path fill="#FFE01B" stroke="#000000" stroke-width="0.0239" d="M69.92,27.356c-0.134,0.015-0.109,0.215,0.024,0.199&#xD;&#xA;&#x9;&#x9;&#x9;C70.08,27.54,70.056,27.339,69.92,27.356z"/>
      <path fill="#FFE01B" stroke="#000000" stroke-width="0.0239" d="M69.794,27.518c-0.135,0.017-0.109,0.216,0.023,0.2&#xD;&#xA;&#x9;&#x9;&#x9;C69.953,27.701,69.929,27.501,69.794,27.518z"/>
      <path fill="#FFE01B" stroke="#000000" stroke-width="0.0239" d="M69.667,27.68c-0.135,0.015-0.109,0.215,0.024,0.198&#xD;&#xA;&#x9;&#x9;&#x9;C69.826,27.863,69.802,27.664,69.667,27.68z"/>
      <path fill="#FFE01B" stroke="#000000" stroke-width="0.0239" d="M69.541,27.842c-0.135,0.017-0.109,0.216,0.024,0.2&#xD;&#xA;&#x9;&#x9;&#x9;C69.698,28.025,69.675,27.825,69.541,27.842z"/>
      <path fill="#FFE01B" stroke="#000000" stroke-width="0.0239" d="M69.413,28.004c-0.133,0.015-0.108,0.215,0.025,0.198&#xD;&#xA;&#x9;&#x9;&#x9;C69.572,28.187,69.548,27.987,69.413,28.004z"/>
      <path fill="#FFE01B" stroke="#000000" stroke-width="0.0239" d="M69.286,28.166c-0.134,0.017-0.108,0.216,0.024,0.2&#xD;&#xA;&#x9;&#x9;&#x9;C69.445,28.349,69.421,28.149,69.286,28.166z"/>
      <path fill="#FFE01B" stroke="#000000" stroke-width="0.0239" d="M69.159,28.328c-0.134,0.016-0.109,0.216,0.025,0.2&#xD;&#xA;&#x9;&#x9;&#x9;C69.318,28.511,69.296,28.312,69.159,28.328z"/>
      <path fill="#FFE01B" stroke="#000000" stroke-width="0.0239" d="M70.382,27.193c0.134,0.017,0.108,0.216-0.025,0.2&#xD;&#xA;&#x9;&#x9;&#x9;C70.224,27.376,70.247,27.177,70.382,27.193z"/>
      <path fill="#FFE01B" stroke="#000000" stroke-width="0.0239" d="M70.509,27.356c0.133,0.015,0.108,0.215-0.026,0.199&#xD;&#xA;&#x9;&#x9;&#x9;C70.35,27.54,70.374,27.339,70.509,27.356z"/>
      <path fill="#FFE01B" stroke="#000000" stroke-width="0.0239" d="M70.635,27.518c0.135,0.017,0.109,0.216-0.024,0.2&#xD;&#xA;&#x9;&#x9;&#x9;S70.5,27.501,70.635,27.518z"/>
      <path fill="#FFE01B" stroke="#000000" stroke-width="0.0239" d="M70.762,27.68c0.135,0.015,0.11,0.215-0.024,0.198&#xD;&#xA;&#x9;&#x9;&#x9;C70.604,27.863,70.626,27.664,70.762,27.68z"/>
      <path fill="#FFE01B" stroke="#000000" stroke-width="0.0239" d="M70.889,27.842c0.134,0.017,0.109,0.216-0.024,0.2&#xD;&#xA;&#x9;&#x9;&#x9;C70.73,28.025,70.753,27.825,70.889,27.842z"/>
      <path fill="#FFE01B" stroke="#000000" stroke-width="0.0239" d="M71.016,28.004c0.134,0.015,0.109,0.215-0.024,0.198&#xD;&#xA;&#x9;&#x9;&#x9;C70.857,28.187,70.88,27.987,71.016,28.004z"/>
      <path fill="#FFE01B" stroke="#000000" stroke-width="0.0239" d="M71.142,28.166c0.135,0.017,0.11,0.216-0.023,0.2&#xD;&#xA;&#x9;&#x9;&#x9;C70.985,28.349,71.008,28.149,71.142,28.166z"/>
      <path fill="#FFE01B" stroke="#000000" stroke-width="0.0239" d="M71.27,28.328c0.134,0.016,0.108,0.216-0.025,0.2&#xD;&#xA;&#x9;&#x9;&#x9;C71.112,28.511,71.135,28.312,71.27,28.328z"/>
      <path fill="#FFE01B" stroke="#000000" stroke-width="0.0239" d="M71.758,28.838c-0.12,0.032-0.188,0.105-0.154,0.175"/>
      <path fill="#FFE01B" stroke="#000000" stroke-width="0.0239" d="M70.611,29.127c0.124,0.075,0.219,0.165,0.257,0.222&#xD;&#xA;&#x9;&#x9;&#x9;c0.038,0.059-0.044,0.169-0.655,0.169c-0.612,0-0.694-0.111-0.657-0.169c0.038-0.057,0.136-0.147,0.257-0.222"/>
      <path fill="#FFE01B" stroke="#000000" stroke-width="0.0239" d="M70.214,27.722c-0.229,0-0.229,0.343,0,0.343&#xD;&#xA;&#x9;&#x9;&#x9;C70.446,28.065,70.448,27.722,70.214,27.722z"/>
      <path fill="#FFE01B" stroke="#000000" stroke-width="0.0239" d="M70.745,28.565c-0.347-0.125-0.53-0.53-0.53-0.677&#xD;&#xA;&#x9;&#x9;&#x9;c0,0.146-0.183,0.552-0.53,0.677H70.745z"/>
      <path fill="#FFE01B" stroke="#000000" stroke-width="0.0239" d="M69.148,28.529c-0.192,0-0.479-0.031-0.754-0.031&#xD;&#xA;&#x9;&#x9;&#x9;c0,0.172,0.15,0.359,0.874,0.359C69.241,28.799,69.148,28.68,69.148,28.529z"/>
      <path fill="none" stroke="#E03A3E" stroke-width="0.0239" d="M68.826,27.15c0.072,0.24-0.1,0.287,0,0.479"/>
      <path fill="none" stroke="#E03A3E" stroke-width="0.0239" d="M68.883,27.832c0.015,0.193-0.188,0.224-0.161,0.448"/>
      <path fill="#FFE01B" stroke="#000000" stroke-width="0.0239" d="M69.049,28.529c0,0,1.853,0,2.069,0&#xD;&#xA;&#x9;&#x9;&#x9;c0.22,0,0.407-0.141,0.563-0.323c0.157-0.182,0.584-0.275,0.651,0.058s-0.271,0.495-0.574,0.574&#xD;&#xA;&#x9;&#x9;&#x9;c0.104,0.05,0.072,0.185-0.038,0.245c-0.115,0.063-0.209,0.008-0.236-0.054c-0.03-0.074-0.002-0.219,0.207-0.292&#xD;&#xA;&#x9;&#x9;&#x9;c0.194-0.067,0.46-0.234,0.37-0.384c-0.087-0.151-0.322,0.033-0.468,0.245c-0.203,0.296-0.515,0.572-0.937,0.572&#xD;&#xA;&#x9;&#x9;&#x9;c-0.274,0-0.448,0-0.682,0C69.741,29.169,69.085,28.909,69.049,28.529z"/>
    </g>
    <g>
      <path fill="#F9AA53" stroke="#000000" stroke-width="0.0239" d="M68.722,29.83c0.202,0.124,0.148,0.229,0.248,0.39&#xD;&#xA;&#x9;&#x9;&#x9;c0.131,0.208-0.087,0.296,0.017,0.5c0.051,0.1,0.067,0.295-0.042,0.364c-0.198,0.125-0.061,0.257-0.161,0.338&#xD;&#xA;&#x9;&#x9;&#x9;c-0.067,0.055-0.072,0.094-0.082,0.151c-0.037-0.13-0.164-0.261-0.096-0.38c0.068-0.12,0.079-0.244,0.017-0.329&#xD;&#xA;&#x9;&#x9;&#x9;c-0.063-0.082-0.1-0.368-0.017-0.503C68.691,30.225,68.816,29.986,68.722,29.83z"/>
      <path fill="#FFE01B" stroke="#000000" stroke-width="0.0239" d="M70.214,29.943c-0.192,0-0.192,0.287,0,0.287&#xD;&#xA;&#x9;&#x9;&#x9;C70.408,30.23,70.41,29.943,70.214,29.943z"/>
      <path fill="#FFE01B" stroke="#000000" stroke-width="0.0239" d="M70.047,30.185c-0.134,0.016-0.108,0.216,0.024,0.199&#xD;&#xA;&#x9;&#x9;&#x9;C70.207,30.368,70.183,30.168,70.047,30.185z"/>
      <path fill="#FFE01B" stroke="#000000" stroke-width="0.0239" d="M69.92,30.347c-0.134,0.016-0.109,0.215,0.024,0.199&#xD;&#xA;&#x9;&#x9;&#x9;C70.08,30.53,70.056,30.331,69.92,30.347z"/>
      <path fill="#FFE01B" stroke="#000000" stroke-width="0.0239" d="M69.794,30.509c-0.135,0.016-0.109,0.216,0.023,0.199&#xD;&#xA;&#x9;&#x9;&#x9;C69.953,30.692,69.929,30.492,69.794,30.509z"/>
      <path fill="#FFE01B" stroke="#000000" stroke-width="0.0239" d="M69.667,30.671c-0.135,0.016-0.109,0.215,0.024,0.199&#xD;&#xA;&#x9;&#x9;&#x9;C69.826,30.854,69.802,30.655,69.667,30.671z"/>
      <path fill="#FFE01B" stroke="#000000" stroke-width="0.0239" d="M69.541,30.833c-0.135,0.017-0.109,0.216,0.024,0.2&#xD;&#xA;&#x9;&#x9;&#x9;C69.698,31.016,69.675,30.816,69.541,30.833z"/>
      <path fill="#FFE01B" stroke="#000000" stroke-width="0.0239" d="M69.413,30.996c-0.133,0.016-0.108,0.215,0.025,0.199&#xD;&#xA;&#x9;&#x9;&#x9;S69.548,30.979,69.413,30.996z"/>
      <path fill="#FFE01B" stroke="#000000" stroke-width="0.0239" d="M69.286,31.157c-0.134,0.017-0.108,0.216,0.024,0.2&#xD;&#xA;&#x9;&#x9;&#x9;C69.445,31.34,69.421,31.14,69.286,31.157z"/>
      <path fill="#FFE01B" stroke="#000000" stroke-width="0.0239" d="M69.159,31.32c-0.134,0.015-0.109,0.215,0.025,0.199&#xD;&#xA;&#x9;&#x9;&#x9;C69.318,31.502,69.296,31.303,69.159,31.32z"/>
      <path fill="#FFE01B" stroke="#000000" stroke-width="0.0239" d="M70.382,30.185c0.134,0.016,0.108,0.216-0.025,0.199&#xD;&#xA;&#x9;&#x9;&#x9;C70.224,30.368,70.247,30.168,70.382,30.185z"/>
      <path fill="#FFE01B" stroke="#000000" stroke-width="0.0239" d="M70.509,30.347c0.133,0.016,0.108,0.215-0.026,0.199&#xD;&#xA;&#x9;&#x9;&#x9;C70.35,30.53,70.374,30.331,70.509,30.347z"/>
      <path fill="#FFE01B" stroke="#000000" stroke-width="0.0239" d="M70.635,30.509c0.135,0.016,0.109,0.216-0.024,0.199&#xD;&#xA;&#x9;&#x9;&#x9;C70.477,30.692,70.5,30.492,70.635,30.509z"/>
      <path fill="#FFE01B" stroke="#000000" stroke-width="0.0239" d="M70.762,30.671c0.135,0.016,0.11,0.215-0.024,0.199&#xD;&#xA;&#x9;&#x9;&#x9;C70.604,30.854,70.626,30.655,70.762,30.671z"/>
      <path fill="#FFE01B" stroke="#000000" stroke-width="0.0239" d="M70.889,30.833c0.134,0.017,0.109,0.216-0.024,0.2&#xD;&#xA;&#x9;&#x9;&#x9;C70.73,31.016,70.753,30.816,70.889,30.833z"/>
      <path fill="#FFE01B" stroke="#000000" stroke-width="0.0239" d="M71.016,30.996c0.134,0.016,0.109,0.215-0.024,0.199&#xD;&#xA;&#x9;&#x9;&#x9;C70.857,31.178,70.88,30.979,71.016,30.996z"/>
      <path fill="#FFE01B" stroke="#000000" stroke-width="0.0239" d="M71.142,31.157c0.135,0.017,0.11,0.216-0.023,0.2&#xD;&#xA;&#x9;&#x9;&#x9;S71.008,31.14,71.142,31.157z"/>
      <path fill="#FFE01B" stroke="#000000" stroke-width="0.0239" d="M71.27,31.32c0.134,0.015,0.108,0.215-0.025,0.199&#xD;&#xA;&#x9;&#x9;&#x9;C71.112,31.502,71.135,31.303,71.27,31.32z"/>
      <path fill="#FFE01B" stroke="#000000" stroke-width="0.0239" d="M71.758,31.83c-0.12,0.032-0.188,0.104-0.154,0.175"/>
      <path fill="#FFE01B" stroke="#000000" stroke-width="0.0239" d="M70.611,32.118c0.124,0.075,0.219,0.164,0.257,0.222&#xD;&#xA;&#x9;&#x9;&#x9;s-0.044,0.169-0.655,0.169c-0.612,0-0.694-0.112-0.657-0.169c0.038-0.058,0.136-0.147,0.257-0.222"/>
      <path fill="#FFE01B" stroke="#000000" stroke-width="0.0239" d="M70.214,30.713c-0.229,0-0.229,0.343,0,0.343&#xD;&#xA;&#x9;&#x9;&#x9;C70.446,31.056,70.448,30.713,70.214,30.713z"/>
      <path fill="#FFE01B" stroke="#000000" stroke-width="0.0239" d="M70.745,31.557c-0.347-0.125-0.53-0.531-0.53-0.677&#xD;&#xA;&#x9;&#x9;&#x9;c0,0.146-0.183,0.552-0.53,0.677H70.745z"/>
      <path fill="#FFE01B" stroke="#000000" stroke-width="0.0239" d="M69.148,31.521c-0.192,0-0.479-0.032-0.754-0.032&#xD;&#xA;&#x9;&#x9;&#x9;c0,0.172,0.15,0.36,0.874,0.36C69.241,31.792,69.148,31.671,69.148,31.521z"/>
      <path fill="none" stroke="#E03A3E" stroke-width="0.0239" d="M68.826,30.141c0.072,0.24-0.1,0.287,0,0.479"/>
      <path fill="none" stroke="#E03A3E" stroke-width="0.0239" d="M68.883,30.823c0.015,0.193-0.188,0.224-0.161,0.448"/>
      <path fill="#FFE01B" stroke="#000000" stroke-width="0.0239" d="M69.049,31.521c0,0,1.853,0,2.069,0&#xD;&#xA;&#x9;&#x9;&#x9;c0.22,0,0.407-0.141,0.563-0.323c0.157-0.182,0.584-0.275,0.651,0.057c0.067,0.333-0.271,0.496-0.574,0.575&#xD;&#xA;&#x9;&#x9;&#x9;c0.104,0.049,0.072,0.186-0.038,0.245c-0.115,0.063-0.209,0.008-0.236-0.055c-0.03-0.074-0.002-0.219,0.207-0.291&#xD;&#xA;&#x9;&#x9;&#x9;c0.194-0.068,0.46-0.235,0.37-0.385c-0.087-0.151-0.322,0.033-0.468,0.244c-0.203,0.296-0.515,0.572-0.937,0.572&#xD;&#xA;&#x9;&#x9;&#x9;c-0.274,0-0.448,0-0.682,0C69.741,32.16,69.085,31.9,69.049,31.521z"/>
    </g>
    <g>
      <path fill="#F9AA53" stroke="#000000" stroke-width="0.0239" d="M79.72,14.898c0.201,0.125,0.148,0.229,0.249,0.39&#xD;&#xA;&#x9;&#x9;&#x9;c0.13,0.208-0.089,0.296,0.015,0.5c0.051,0.1,0.068,0.295-0.041,0.364c-0.197,0.125-0.061,0.258-0.161,0.338&#xD;&#xA;&#x9;&#x9;&#x9;c-0.068,0.054-0.073,0.094-0.083,0.151c-0.038-0.131-0.161-0.261-0.093-0.38c0.065-0.119,0.076-0.245,0.015-0.328&#xD;&#xA;&#x9;&#x9;&#x9;c-0.063-0.083-0.1-0.369-0.015-0.505C79.688,15.293,79.814,15.054,79.72,14.898z"/>
      <path fill="#FFE01B" stroke="#000000" stroke-width="0.0239" d="M81.212,15.012c-0.191,0-0.191,0.286,0,0.286&#xD;&#xA;&#x9;&#x9;&#x9;C81.406,15.298,81.409,15.012,81.212,15.012z"/>
      <path fill="#FFE01B" stroke="#000000" stroke-width="0.0239" d="M81.044,15.253c-0.134,0.017-0.108,0.216,0.025,0.199&#xD;&#xA;&#x9;&#x9;&#x9;S81.18,15.236,81.044,15.253z"/>
      <path fill="#FFE01B" stroke="#000000" stroke-width="0.0239" d="M80.918,15.416c-0.134,0.016-0.109,0.216,0.024,0.2&#xD;&#xA;&#x9;&#x9;&#x9;C81.077,15.599,81.055,15.399,80.918,15.416z"/>
      <path fill="#FFE01B" stroke="#000000" stroke-width="0.0239" d="M80.792,15.577c-0.134,0.017-0.109,0.216,0.024,0.199&#xD;&#xA;&#x9;&#x9;&#x9;S80.928,15.561,80.792,15.577z"/>
      <path fill="#FFE01B" stroke="#000000" stroke-width="0.0239" d="M80.665,15.74c-0.134,0.016-0.109,0.215,0.024,0.199&#xD;&#xA;&#x9;&#x9;&#x9;C80.824,15.923,80.801,15.723,80.665,15.74z"/>
      <path fill="#FFE01B" stroke="#000000" stroke-width="0.0239" d="M80.539,15.901c-0.135,0.017-0.109,0.216,0.024,0.199&#xD;&#xA;&#x9;&#x9;&#x9;C80.696,16.084,80.674,15.885,80.539,15.901z"/>
      <path fill="#FFE01B" stroke="#000000" stroke-width="0.0239" d="M80.411,16.064c-0.133,0.016-0.108,0.215,0.025,0.199&#xD;&#xA;&#x9;&#x9;&#x9;C80.569,16.247,80.546,16.047,80.411,16.064z"/>
      <path fill="#FFE01B" stroke="#000000" stroke-width="0.0239" d="M80.284,16.226c-0.134,0.017-0.108,0.216,0.024,0.199&#xD;&#xA;&#x9;&#x9;&#x9;C80.442,16.408,80.42,16.209,80.284,16.226z"/>
      <path fill="#FFE01B" stroke="#000000" stroke-width="0.0239" d="M80.157,16.388c-0.134,0.016-0.109,0.216,0.025,0.2&#xD;&#xA;&#x9;&#x9;&#x9;C80.315,16.571,80.293,16.371,80.157,16.388z"/>
      <path fill="#FFE01B" stroke="#000000" stroke-width="0.0239" d="M81.38,15.253c0.133,0.017,0.109,0.216-0.025,0.199&#xD;&#xA;&#x9;&#x9;&#x9;C81.222,15.436,81.245,15.236,81.38,15.253z"/>
      <path fill="#FFE01B" stroke="#000000" stroke-width="0.0239" d="M81.507,15.416c0.132,0.016,0.109,0.216-0.024,0.2&#xD;&#xA;&#x9;&#x9;&#x9;C81.349,15.599,81.372,15.399,81.507,15.416z"/>
      <path fill="#FFE01B" stroke="#000000" stroke-width="0.0239" d="M81.633,15.577c0.134,0.017,0.11,0.216-0.023,0.199&#xD;&#xA;&#x9;&#x9;&#x9;S81.498,15.561,81.633,15.577z"/>
      <path fill="#FFE01B" stroke="#000000" stroke-width="0.0239" d="M81.76,15.74c0.134,0.016,0.11,0.215-0.023,0.199&#xD;&#xA;&#x9;&#x9;&#x9;C81.601,15.923,81.625,15.723,81.76,15.74z"/>
      <path fill="#FFE01B" stroke="#000000" stroke-width="0.0239" d="M81.887,15.901c0.134,0.017,0.11,0.216-0.023,0.199&#xD;&#xA;&#x9;&#x9;&#x9;C81.728,16.084,81.751,15.885,81.887,15.901z"/>
      <path fill="#FFE01B" stroke="#000000" stroke-width="0.0239" d="M82.013,16.064c0.135,0.016,0.109,0.215-0.024,0.199&#xD;&#xA;&#x9;&#x9;&#x9;C81.855,16.247,81.878,16.047,82.013,16.064z"/>
      <path fill="#FFE01B" stroke="#000000" stroke-width="0.0239" d="M82.14,16.226c0.134,0.017,0.109,0.216-0.024,0.199&#xD;&#xA;&#x9;&#x9;&#x9;C81.984,16.408,82.006,16.209,82.14,16.226z"/>
      <path fill="#FFE01B" stroke="#000000" stroke-width="0.0239" d="M82.268,16.388c0.133,0.016,0.108,0.216-0.023,0.2&#xD;&#xA;&#x9;&#x9;&#x9;C82.111,16.571,82.132,16.371,82.268,16.388z"/>
      <path fill="#FFE01B" stroke="#000000" stroke-width="0.0239" d="M82.755,16.898c-0.119,0.032-0.188,0.104-0.154,0.175"/>
      <path fill="#FFE01B" stroke="#000000" stroke-width="0.0239" d="M81.61,17.187c0.123,0.075,0.218,0.164,0.256,0.222&#xD;&#xA;&#x9;&#x9;&#x9;c0.039,0.058-0.042,0.168-0.655,0.168s-0.694-0.111-0.656-0.168c0.037-0.058,0.134-0.147,0.257-0.222"/>
      <path fill="#FFE01B" stroke="#000000" stroke-width="0.0239" d="M81.212,15.782c-0.229,0-0.229,0.344,0,0.344&#xD;&#xA;&#x9;&#x9;&#x9;C81.443,16.125,81.446,15.782,81.212,15.782z"/>
      <path fill="#FFE01B" stroke="#000000" stroke-width="0.0239" d="M81.745,16.625c-0.349-0.125-0.532-0.531-0.532-0.676&#xD;&#xA;&#x9;&#x9;&#x9;c0,0.145-0.183,0.551-0.531,0.676H81.745z"/>
      <path fill="#FFE01B" stroke="#000000" stroke-width="0.0239" d="M80.146,16.589c-0.192,0-0.479-0.031-0.754-0.031&#xD;&#xA;&#x9;&#x9;&#x9;c0,0.171,0.149,0.359,0.874,0.359C80.24,16.859,80.146,16.74,80.146,16.589z"/>
      <path fill="none" stroke="#E03A3E" stroke-width="0.0239" d="M79.825,15.21c0.071,0.239-0.1,0.286,0,0.479"/>
      <path fill="none" stroke="#E03A3E" stroke-width="0.0239" d="M79.88,15.892c0.016,0.192-0.188,0.224-0.16,0.448"/>
      <path fill="#FFE01B" stroke="#000000" stroke-width="0.0239" d="M80.046,16.589c0,0,1.853,0,2.072,0&#xD;&#xA;&#x9;&#x9;&#x9;c0.218,0,0.404-0.141,0.562-0.323c0.156-0.182,0.582-0.276,0.65,0.057c0.067,0.333-0.271,0.496-0.575,0.575&#xD;&#xA;&#x9;&#x9;&#x9;c0.104,0.05,0.072,0.185-0.036,0.245c-0.116,0.063-0.211,0.009-0.238-0.054c-0.029-0.074-0.002-0.22,0.207-0.292&#xD;&#xA;&#x9;&#x9;&#x9;c0.195-0.068,0.46-0.235,0.372-0.386c-0.09-0.151-0.323,0.033-0.47,0.245c-0.202,0.296-0.513,0.572-0.936,0.572&#xD;&#xA;&#x9;&#x9;&#x9;c-0.275,0-0.448,0-0.682,0C80.739,17.229,80.083,16.969,80.046,16.589z"/>
    </g>
    <g>
      <path fill="#F9AA53" stroke="#000000" stroke-width="0.0239" d="M79.72,17.889c0.201,0.125,0.148,0.23,0.249,0.39&#xD;&#xA;&#x9;&#x9;&#x9;c0.13,0.208-0.089,0.296,0.015,0.5c0.051,0.101,0.068,0.295-0.041,0.364c-0.197,0.125-0.061,0.258-0.161,0.338&#xD;&#xA;&#x9;&#x9;&#x9;c-0.068,0.055-0.073,0.094-0.083,0.151c-0.038-0.13-0.161-0.26-0.093-0.38c0.065-0.12,0.076-0.244,0.015-0.327&#xD;&#xA;&#x9;&#x9;&#x9;c-0.063-0.083-0.1-0.369-0.015-0.505C79.688,18.284,79.814,18.045,79.72,17.889z"/>
      <path fill="#FFE01B" stroke="#000000" stroke-width="0.0239" d="M81.212,18.003c-0.191,0-0.191,0.286,0,0.286&#xD;&#xA;&#x9;&#x9;&#x9;C81.406,18.289,81.409,18.003,81.212,18.003z"/>
      <path fill="#FFE01B" stroke="#000000" stroke-width="0.0239" d="M81.044,18.245c-0.134,0.016-0.108,0.215,0.025,0.199&#xD;&#xA;&#x9;&#x9;&#x9;S81.18,18.228,81.044,18.245z"/>
      <path fill="#FFE01B" stroke="#000000" stroke-width="0.0239" d="M80.918,18.406c-0.134,0.017-0.109,0.216,0.024,0.2&#xD;&#xA;&#x9;&#x9;&#x9;S81.055,18.39,80.918,18.406z"/>
      <path fill="#FFE01B" stroke="#000000" stroke-width="0.0239" d="M80.792,18.568c-0.134,0.017-0.109,0.215,0.024,0.199&#xD;&#xA;&#x9;&#x9;&#x9;C80.95,18.752,80.928,18.552,80.792,18.568z"/>
      <path fill="#FFE01B" stroke="#000000" stroke-width="0.0239" d="M80.665,18.73c-0.134,0.017-0.109,0.216,0.024,0.2&#xD;&#xA;&#x9;&#x9;&#x9;C80.824,18.914,80.801,18.714,80.665,18.73z"/>
      <path fill="#FFE01B" stroke="#000000" stroke-width="0.0239" d="M80.539,18.893c-0.135,0.017-0.109,0.215,0.024,0.199&#xD;&#xA;&#x9;&#x9;&#x9;C80.696,19.075,80.674,18.876,80.539,18.893z"/>
      <path fill="#FFE01B" stroke="#000000" stroke-width="0.0239" d="M80.411,19.055c-0.133,0.017-0.108,0.216,0.025,0.2&#xD;&#xA;&#x9;&#x9;&#x9;C80.569,19.238,80.546,19.038,80.411,19.055z"/>
      <path fill="#FFE01B" stroke="#000000" stroke-width="0.0239" d="M80.284,19.217c-0.134,0.016-0.108,0.215,0.024,0.199&#xD;&#xA;&#x9;&#x9;&#x9;C80.442,19.399,80.42,19.2,80.284,19.217z"/>
      <path fill="#FFE01B" stroke="#000000" stroke-width="0.0239" d="M80.157,19.379c-0.134,0.017-0.109,0.216,0.025,0.2&#xD;&#xA;&#x9;&#x9;&#x9;C80.315,19.562,80.293,19.362,80.157,19.379z"/>
      <path fill="#FFE01B" stroke="#000000" stroke-width="0.0239" d="M81.38,18.245c0.133,0.016,0.109,0.215-0.025,0.199&#xD;&#xA;&#x9;&#x9;&#x9;C81.222,18.427,81.245,18.228,81.38,18.245z"/>
      <path fill="#FFE01B" stroke="#000000" stroke-width="0.0239" d="M81.507,18.406c0.132,0.017,0.109,0.216-0.024,0.2&#xD;&#xA;&#x9;&#x9;&#x9;S81.372,18.39,81.507,18.406z"/>
      <path fill="#FFE01B" stroke="#000000" stroke-width="0.0239" d="M81.633,18.568c0.134,0.017,0.11,0.215-0.023,0.199&#xD;&#xA;&#x9;&#x9;&#x9;C81.476,18.752,81.498,18.552,81.633,18.568z"/>
      <path fill="#FFE01B" stroke="#000000" stroke-width="0.0239" d="M81.76,18.73c0.134,0.017,0.11,0.216-0.023,0.2&#xD;&#xA;&#x9;&#x9;&#x9;C81.601,18.914,81.625,18.714,81.76,18.73z"/>
      <path fill="#FFE01B" stroke="#000000" stroke-width="0.0239" d="M81.887,18.893c0.134,0.017,0.11,0.215-0.023,0.199&#xD;&#xA;&#x9;&#x9;&#x9;C81.728,19.075,81.751,18.876,81.887,18.893z"/>
      <path fill="#FFE01B" stroke="#000000" stroke-width="0.0239" d="M82.013,19.055c0.135,0.017,0.109,0.216-0.024,0.2&#xD;&#xA;&#x9;&#x9;&#x9;S81.878,19.038,82.013,19.055z"/>
      <path fill="#FFE01B" stroke="#000000" stroke-width="0.0239" d="M82.14,19.217c0.134,0.016,0.109,0.215-0.024,0.199&#xD;&#xA;&#x9;&#x9;&#x9;C81.984,19.399,82.006,19.2,82.14,19.217z"/>
      <path fill="#FFE01B" stroke="#000000" stroke-width="0.0239" d="M82.268,19.379c0.133,0.017,0.108,0.216-0.023,0.2&#xD;&#xA;&#x9;&#x9;&#x9;C82.111,19.562,82.132,19.362,82.268,19.379z"/>
      <path fill="#FFE01B" stroke="#000000" stroke-width="0.0239" d="M82.755,19.89c-0.119,0.03-0.188,0.104-0.154,0.174"/>
      <path fill="#FFE01B" stroke="#000000" stroke-width="0.0239" d="M81.61,20.177c0.123,0.075,0.218,0.164,0.256,0.223&#xD;&#xA;&#x9;&#x9;&#x9;c0.039,0.058-0.042,0.169-0.655,0.169s-0.694-0.111-0.656-0.169c0.037-0.059,0.134-0.148,0.257-0.223"/>
      <path fill="#FFE01B" stroke="#000000" stroke-width="0.0239" d="M81.212,18.773c-0.229,0-0.229,0.342,0,0.342&#xD;&#xA;&#x9;&#x9;&#x9;C81.443,19.115,81.446,18.773,81.212,18.773z"/>
      <path fill="#FFE01B" stroke="#000000" stroke-width="0.0239" d="M81.745,19.616c-0.349-0.124-0.532-0.531-0.532-0.676&#xD;&#xA;&#x9;&#x9;&#x9;c0,0.145-0.183,0.552-0.531,0.676H81.745z"/>
      <path fill="#FFE01B" stroke="#000000" stroke-width="0.0239" d="M80.146,19.58c-0.192,0-0.479-0.031-0.754-0.031&#xD;&#xA;&#x9;&#x9;&#x9;c0,0.172,0.149,0.359,0.874,0.359C80.24,19.851,80.146,19.731,80.146,19.58z"/>
      <path fill="none" stroke="#E03A3E" stroke-width="0.0239" d="M79.825,18.202c0.071,0.239-0.1,0.286,0,0.478"/>
      <path fill="none" stroke="#E03A3E" stroke-width="0.0239" d="M79.88,18.883c0.016,0.191-0.188,0.224-0.16,0.447"/>
      <path fill="#FFE01B" stroke="#000000" stroke-width="0.0239" d="M80.046,19.58c0,0,1.853,0,2.072,0&#xD;&#xA;&#x9;&#x9;&#x9;c0.218,0,0.404-0.14,0.562-0.322c0.156-0.183,0.582-0.276,0.65,0.057c0.067,0.333-0.271,0.496-0.575,0.576&#xD;&#xA;&#x9;&#x9;&#x9;c0.104,0.049,0.072,0.184-0.036,0.244c-0.116,0.063-0.211,0.007-0.238-0.055c-0.029-0.074-0.002-0.22,0.207-0.291&#xD;&#xA;&#x9;&#x9;&#x9;c0.195-0.068,0.46-0.234,0.372-0.386c-0.09-0.151-0.323,0.033-0.47,0.244c-0.202,0.297-0.513,0.573-0.936,0.573&#xD;&#xA;&#x9;&#x9;&#x9;c-0.275,0-0.448,0-0.682,0C80.739,20.22,80.083,19.96,80.046,19.58z"/>
    </g>
    <g>
      <path fill="#F9AA53" stroke="#000000" stroke-width="0.0239" d="M79.72,20.88c0.201,0.125,0.148,0.229,0.249,0.39&#xD;&#xA;&#x9;&#x9;&#x9;c0.13,0.208-0.089,0.297,0.015,0.499c0.051,0.101,0.068,0.296-0.041,0.365c-0.197,0.125-0.061,0.257-0.161,0.339&#xD;&#xA;&#x9;&#x9;&#x9;c-0.068,0.054-0.073,0.092-0.083,0.15c-0.038-0.13-0.161-0.26-0.093-0.38c0.065-0.12,0.076-0.245,0.015-0.328&#xD;&#xA;&#x9;&#x9;&#x9;c-0.063-0.084-0.1-0.37-0.015-0.505C79.688,21.275,79.814,21.036,79.72,20.88z"/>
      <path fill="#FFE01B" stroke="#000000" stroke-width="0.0239" d="M81.212,20.994c-0.191,0-0.191,0.287,0,0.287&#xD;&#xA;&#x9;&#x9;&#x9;C81.406,21.28,81.409,20.994,81.212,20.994z"/>
      <path fill="#FFE01B" stroke="#000000" stroke-width="0.0239" d="M81.044,21.235c-0.134,0.016-0.108,0.216,0.025,0.199&#xD;&#xA;&#x9;&#x9;&#x9;S81.18,21.219,81.044,21.235z"/>
      <path fill="#FFE01B" stroke="#000000" stroke-width="0.0239" d="M80.918,21.397c-0.134,0.016-0.109,0.215,0.024,0.2&#xD;&#xA;&#x9;&#x9;&#x9;C81.077,21.581,81.055,21.381,80.918,21.397z"/>
      <path fill="#FFE01B" stroke="#000000" stroke-width="0.0239" d="M80.792,21.56c-0.134,0.016-0.109,0.216,0.024,0.199&#xD;&#xA;&#x9;&#x9;&#x9;S80.928,21.543,80.792,21.56z"/>
      <path fill="#FFE01B" stroke="#000000" stroke-width="0.0239" d="M80.665,21.722c-0.134,0.016-0.109,0.216,0.024,0.199&#xD;&#xA;&#x9;&#x9;&#x9;C80.824,21.905,80.801,21.705,80.665,21.722z"/>
      <path fill="#FFE01B" stroke="#000000" stroke-width="0.0239" d="M80.539,21.884c-0.135,0.016-0.109,0.215,0.024,0.199&#xD;&#xA;&#x9;&#x9;&#x9;C80.696,22.066,80.674,21.867,80.539,21.884z"/>
      <path fill="#FFE01B" stroke="#000000" stroke-width="0.0239" d="M80.411,22.046c-0.133,0.016-0.108,0.216,0.025,0.199&#xD;&#xA;&#x9;&#x9;&#x9;C80.569,22.229,80.546,22.029,80.411,22.046z"/>
      <path fill="#FFE01B" stroke="#000000" stroke-width="0.0239" d="M80.284,22.208c-0.134,0.016-0.108,0.215,0.024,0.199&#xD;&#xA;&#x9;&#x9;&#x9;C80.442,22.391,80.42,22.191,80.284,22.208z"/>
      <path fill="#FFE01B" stroke="#000000" stroke-width="0.0239" d="M80.157,22.37c-0.134,0.017-0.109,0.216,0.025,0.2&#xD;&#xA;&#x9;&#x9;&#x9;C80.315,22.553,80.293,22.353,80.157,22.37z"/>
      <path fill="#FFE01B" stroke="#000000" stroke-width="0.0239" d="M81.38,21.235c0.133,0.016,0.109,0.216-0.025,0.199&#xD;&#xA;&#x9;&#x9;&#x9;C81.222,21.418,81.245,21.219,81.38,21.235z"/>
      <path fill="#FFE01B" stroke="#000000" stroke-width="0.0239" d="M81.507,21.397c0.132,0.016,0.109,0.215-0.024,0.2&#xD;&#xA;&#x9;&#x9;&#x9;C81.349,21.581,81.372,21.381,81.507,21.397z"/>
      <path fill="#FFE01B" stroke="#000000" stroke-width="0.0239" d="M81.633,21.56c0.134,0.016,0.11,0.216-0.023,0.199&#xD;&#xA;&#x9;&#x9;&#x9;S81.498,21.543,81.633,21.56z"/>
      <path fill="#FFE01B" stroke="#000000" stroke-width="0.0239" d="M81.76,21.722c0.134,0.016,0.11,0.216-0.023,0.199&#xD;&#xA;&#x9;&#x9;&#x9;C81.601,21.905,81.625,21.705,81.76,21.722z"/>
      <path fill="#FFE01B" stroke="#000000" stroke-width="0.0239" d="M81.887,21.884c0.134,0.016,0.11,0.215-0.023,0.199&#xD;&#xA;&#x9;&#x9;&#x9;C81.728,22.066,81.751,21.867,81.887,21.884z"/>
      <path fill="#FFE01B" stroke="#000000" stroke-width="0.0239" d="M82.013,22.046c0.135,0.016,0.109,0.216-0.024,0.199&#xD;&#xA;&#x9;&#x9;&#x9;S81.878,22.029,82.013,22.046z"/>
      <path fill="#FFE01B" stroke="#000000" stroke-width="0.0239" d="M82.14,22.208c0.134,0.016,0.109,0.215-0.024,0.199&#xD;&#xA;&#x9;&#x9;&#x9;C81.984,22.391,82.006,22.191,82.14,22.208z"/>
      <path fill="#FFE01B" stroke="#000000" stroke-width="0.0239" d="M82.268,22.37c0.133,0.017,0.108,0.216-0.023,0.2&#xD;&#xA;&#x9;&#x9;&#x9;C82.111,22.553,82.132,22.353,82.268,22.37z"/>
      <path fill="#FFE01B" stroke="#000000" stroke-width="0.0239" d="M82.755,22.881c-0.119,0.031-0.188,0.104-0.154,0.174"/>
      <path fill="#FFE01B" stroke="#000000" stroke-width="0.0239" d="M81.61,23.168c0.123,0.075,0.218,0.165,0.256,0.222&#xD;&#xA;&#x9;&#x9;&#x9;c0.039,0.059-0.042,0.169-0.655,0.169s-0.694-0.111-0.656-0.169c0.037-0.057,0.134-0.147,0.257-0.222"/>
      <path fill="#FFE01B" stroke="#000000" stroke-width="0.0239" d="M81.212,21.764c-0.229,0-0.229,0.342,0,0.342&#xD;&#xA;&#x9;&#x9;&#x9;C81.443,22.106,81.446,21.764,81.212,21.764z"/>
      <path fill="#FFE01B" stroke="#000000" stroke-width="0.0239" d="M81.745,22.607c-0.349-0.124-0.532-0.53-0.532-0.676&#xD;&#xA;&#x9;&#x9;&#x9;c0,0.146-0.183,0.552-0.531,0.676H81.745z"/>
      <path fill="#FFE01B" stroke="#000000" stroke-width="0.0239" d="M80.146,22.571c-0.192,0-0.479-0.031-0.754-0.031&#xD;&#xA;&#x9;&#x9;&#x9;c0,0.171,0.149,0.358,0.874,0.358C80.24,22.841,80.146,22.722,80.146,22.571z"/>
      <path fill="none" stroke="#E03A3E" stroke-width="0.0239" d="M79.825,21.192c0.071,0.239-0.1,0.286,0,0.479"/>
      <path fill="none" stroke="#E03A3E" stroke-width="0.0239" d="M79.88,21.873c0.016,0.193-0.188,0.224-0.16,0.448"/>
      <path fill="#FFE01B" stroke="#000000" stroke-width="0.0239" d="M80.046,22.571c0,0,1.853,0,2.072,0&#xD;&#xA;&#x9;&#x9;&#x9;c0.218,0,0.404-0.141,0.562-0.322c0.156-0.183,0.582-0.276,0.65,0.057c0.067,0.333-0.271,0.496-0.575,0.575&#xD;&#xA;&#x9;&#x9;&#x9;c0.104,0.049,0.072,0.184-0.036,0.244c-0.116,0.064-0.211,0.008-0.238-0.054c-0.029-0.074-0.002-0.22,0.207-0.292&#xD;&#xA;&#x9;&#x9;&#x9;c0.195-0.067,0.46-0.234,0.372-0.385c-0.09-0.15-0.323,0.033-0.47,0.246c-0.202,0.296-0.513,0.572-0.936,0.572&#xD;&#xA;&#x9;&#x9;&#x9;c-0.275,0-0.448,0-0.682,0C80.739,23.211,80.083,22.951,80.046,22.571z"/>
    </g>
    <g>
      <path fill="#F9AA53" stroke="#000000" stroke-width="0.0239" d="M79.72,26.862c0.201,0.125,0.148,0.23,0.249,0.39&#xD;&#xA;&#x9;&#x9;&#x9;c0.13,0.208-0.089,0.297,0.015,0.5c0.051,0.101,0.068,0.296-0.041,0.364c-0.197,0.125-0.061,0.257-0.161,0.338&#xD;&#xA;&#x9;&#x9;&#x9;c-0.068,0.055-0.073,0.093-0.083,0.15c-0.038-0.129-0.161-0.26-0.093-0.379c0.065-0.12,0.076-0.245,0.015-0.328&#xD;&#xA;&#x9;&#x9;&#x9;c-0.063-0.083-0.1-0.37-0.015-0.504C79.688,27.257,79.814,27.018,79.72,26.862z"/>
      <path fill="#FFE01B" stroke="#000000" stroke-width="0.0239" d="M81.212,26.976c-0.191,0-0.191,0.286,0,0.286&#xD;&#xA;&#x9;&#x9;&#x9;C81.406,27.262,81.409,26.976,81.212,26.976z"/>
      <path fill="#FFE01B" stroke="#000000" stroke-width="0.0239" d="M81.044,27.217c-0.134,0.016-0.108,0.216,0.025,0.199&#xD;&#xA;&#x9;&#x9;&#x9;C81.204,27.4,81.18,27.201,81.044,27.217z"/>
      <path fill="#FFE01B" stroke="#000000" stroke-width="0.0239" d="M80.918,27.379c-0.134,0.017-0.109,0.216,0.024,0.199&#xD;&#xA;&#x9;&#x9;&#x9;C81.077,27.563,81.055,27.363,80.918,27.379z"/>
      <path fill="#FFE01B" stroke="#000000" stroke-width="0.0239" d="M80.792,27.542c-0.134,0.016-0.109,0.216,0.024,0.199&#xD;&#xA;&#x9;&#x9;&#x9;C80.95,27.725,80.928,27.525,80.792,27.542z"/>
      <path fill="#FFE01B" stroke="#000000" stroke-width="0.0239" d="M80.665,27.704c-0.134,0.017-0.109,0.216,0.024,0.199&#xD;&#xA;&#x9;&#x9;&#x9;C80.824,27.887,80.801,27.687,80.665,27.704z"/>
      <path fill="#FFE01B" stroke="#000000" stroke-width="0.0239" d="M80.539,27.866c-0.135,0.016-0.109,0.215,0.024,0.199&#xD;&#xA;&#x9;&#x9;&#x9;C80.696,28.048,80.674,27.849,80.539,27.866z"/>
      <path fill="#FFE01B" stroke="#000000" stroke-width="0.0239" d="M80.411,28.028c-0.133,0.017-0.108,0.216,0.025,0.199&#xD;&#xA;&#x9;&#x9;&#x9;C80.569,28.211,80.546,28.011,80.411,28.028z"/>
      <path fill="#FFE01B" stroke="#000000" stroke-width="0.0239" d="M80.284,28.189c-0.134,0.017-0.108,0.216,0.024,0.2&#xD;&#xA;&#x9;&#x9;&#x9;C80.442,28.373,80.42,28.173,80.284,28.189z"/>
      <path fill="#FFE01B" stroke="#000000" stroke-width="0.0239" d="M80.157,28.352c-0.134,0.017-0.109,0.216,0.025,0.199&#xD;&#xA;&#x9;&#x9;&#x9;C80.315,28.535,80.293,28.335,80.157,28.352z"/>
      <path fill="#FFE01B" stroke="#000000" stroke-width="0.0239" d="M81.38,27.217c0.133,0.016,0.109,0.216-0.025,0.199&#xD;&#xA;&#x9;&#x9;&#x9;C81.222,27.4,81.245,27.201,81.38,27.217z"/>
      <path fill="#FFE01B" stroke="#000000" stroke-width="0.0239" d="M81.507,27.379c0.132,0.017,0.109,0.216-0.024,0.199&#xD;&#xA;&#x9;&#x9;&#x9;C81.349,27.563,81.372,27.363,81.507,27.379z"/>
      <path fill="#FFE01B" stroke="#000000" stroke-width="0.0239" d="M81.633,27.542c0.134,0.016,0.11,0.216-0.023,0.199&#xD;&#xA;&#x9;&#x9;&#x9;C81.476,27.725,81.498,27.525,81.633,27.542z"/>
      <path fill="#FFE01B" stroke="#000000" stroke-width="0.0239" d="M81.76,27.704c0.134,0.017,0.11,0.216-0.023,0.199&#xD;&#xA;&#x9;&#x9;&#x9;C81.601,27.887,81.625,27.687,81.76,27.704z"/>
      <path fill="#FFE01B" stroke="#000000" stroke-width="0.0239" d="M81.887,27.866c0.134,0.016,0.11,0.215-0.023,0.199&#xD;&#xA;&#x9;&#x9;&#x9;C81.728,28.048,81.751,27.849,81.887,27.866z"/>
      <path fill="#FFE01B" stroke="#000000" stroke-width="0.0239" d="M82.013,28.028c0.135,0.017,0.109,0.216-0.024,0.199&#xD;&#xA;&#x9;&#x9;&#x9;C81.855,28.211,81.878,28.011,82.013,28.028z"/>
      <path fill="#FFE01B" stroke="#000000" stroke-width="0.0239" d="M82.14,28.189c0.134,0.017,0.109,0.216-0.024,0.2&#xD;&#xA;&#x9;&#x9;&#x9;C81.984,28.373,82.006,28.173,82.14,28.189z"/>
      <path fill="#FFE01B" stroke="#000000" stroke-width="0.0239" d="M82.268,28.352c0.133,0.017,0.108,0.216-0.023,0.199&#xD;&#xA;&#x9;&#x9;&#x9;C82.111,28.535,82.132,28.335,82.268,28.352z"/>
      <path fill="#FFE01B" stroke="#000000" stroke-width="0.0239" d="M82.755,28.863c-0.119,0.03-0.188,0.104-0.154,0.174"/>
      <path fill="#FFE01B" stroke="#000000" stroke-width="0.0239" d="M81.61,29.15c0.123,0.075,0.218,0.164,0.256,0.222&#xD;&#xA;&#x9;&#x9;&#x9;c0.039,0.058-0.042,0.169-0.655,0.169s-0.694-0.111-0.656-0.169c0.037-0.058,0.134-0.147,0.257-0.222"/>
      <path fill="#FFE01B" stroke="#000000" stroke-width="0.0239" d="M81.212,27.746c-0.229,0-0.229,0.343,0,0.343&#xD;&#xA;&#x9;&#x9;&#x9;C81.443,28.088,81.446,27.746,81.212,27.746z"/>
      <path fill="#FFE01B" stroke="#000000" stroke-width="0.0239" d="M81.745,28.589c-0.349-0.124-0.532-0.531-0.532-0.676&#xD;&#xA;&#x9;&#x9;&#x9;c0,0.145-0.183,0.552-0.531,0.676H81.745z"/>
      <path fill="#FFE01B" stroke="#000000" stroke-width="0.0239" d="M80.146,28.553c-0.192,0-0.479-0.03-0.754-0.03&#xD;&#xA;&#x9;&#x9;&#x9;c0,0.171,0.149,0.358,0.874,0.358C80.24,28.824,80.146,28.704,80.146,28.553z"/>
      <path fill="none" stroke="#E03A3E" stroke-width="0.0239" d="M79.825,27.174c0.071,0.239-0.1,0.286,0,0.479"/>
      <path fill="none" stroke="#E03A3E" stroke-width="0.0239" d="M79.88,27.855c0.016,0.192-0.188,0.224-0.16,0.448"/>
      <path fill="#FFE01B" stroke="#000000" stroke-width="0.0239" d="M80.046,28.553c0,0,1.853,0,2.072,0&#xD;&#xA;&#x9;&#x9;&#x9;c0.218,0,0.404-0.14,0.562-0.323c0.156-0.182,0.582-0.275,0.65,0.058c0.067,0.333-0.271,0.496-0.575,0.576&#xD;&#xA;&#x9;&#x9;&#x9;c0.104,0.048,0.072,0.184-0.036,0.244c-0.116,0.063-0.211,0.007-0.238-0.055c-0.029-0.074-0.002-0.219,0.207-0.291&#xD;&#xA;&#x9;&#x9;&#x9;c0.195-0.067,0.46-0.234,0.372-0.385c-0.09-0.151-0.323,0.033-0.47,0.245c-0.202,0.297-0.513,0.572-0.936,0.572&#xD;&#xA;&#x9;&#x9;&#x9;c-0.275,0-0.448,0-0.682,0C80.739,29.193,80.083,28.933,80.046,28.553z"/>
    </g>
    <g>
      <path fill="#F9AA53" stroke="#000000" stroke-width="0.0239" d="M79.72,29.854c0.201,0.125,0.148,0.229,0.249,0.39&#xD;&#xA;&#x9;&#x9;&#x9;c0.13,0.208-0.089,0.296,0.015,0.5c0.051,0.1,0.068,0.296-0.041,0.364c-0.197,0.125-0.061,0.257-0.161,0.338&#xD;&#xA;&#x9;&#x9;&#x9;c-0.068,0.055-0.073,0.093-0.083,0.15c-0.038-0.13-0.161-0.259-0.093-0.379c0.065-0.12,0.076-0.245,0.015-0.328&#xD;&#xA;&#x9;&#x9;&#x9;c-0.063-0.083-0.1-0.37-0.015-0.505C79.688,30.248,79.814,30.009,79.72,29.854z"/>
      <path fill="#FFE01B" stroke="#000000" stroke-width="0.0239" d="M81.212,29.967c-0.191,0-0.191,0.287,0,0.287&#xD;&#xA;&#x9;&#x9;&#x9;C81.406,30.254,81.409,29.967,81.212,29.967z"/>
      <path fill="#FFE01B" stroke="#000000" stroke-width="0.0239" d="M81.044,30.208c-0.134,0.017-0.108,0.216,0.025,0.2&#xD;&#xA;&#x9;&#x9;&#x9;S81.18,30.191,81.044,30.208z"/>
      <path fill="#FFE01B" stroke="#000000" stroke-width="0.0239" d="M80.918,30.371c-0.134,0.017-0.109,0.215,0.024,0.199&#xD;&#xA;&#x9;&#x9;&#x9;C81.077,30.554,81.055,30.354,80.918,30.371z"/>
      <path fill="#FFE01B" stroke="#000000" stroke-width="0.0239" d="M80.792,30.532c-0.134,0.017-0.109,0.216,0.024,0.2&#xD;&#xA;&#x9;&#x9;&#x9;S80.928,30.516,80.792,30.532z"/>
      <path fill="#FFE01B" stroke="#000000" stroke-width="0.0239" d="M80.665,30.695c-0.134,0.015-0.109,0.215,0.024,0.199&#xD;&#xA;&#x9;&#x9;&#x9;C80.824,30.877,80.801,30.678,80.665,30.695z"/>
      <path fill="#FFE01B" stroke="#000000" stroke-width="0.0239" d="M80.539,30.856c-0.135,0.017-0.109,0.216,0.024,0.2&#xD;&#xA;&#x9;&#x9;&#x9;C80.696,31.04,80.674,30.84,80.539,30.856z"/>
      <path fill="#FFE01B" stroke="#000000" stroke-width="0.0239" d="M80.411,31.019c-0.133,0.015-0.108,0.215,0.025,0.199&#xD;&#xA;&#x9;&#x9;&#x9;C80.569,31.202,80.546,31.002,80.411,31.019z"/>
      <path fill="#FFE01B" stroke="#000000" stroke-width="0.0239" d="M80.284,31.181c-0.134,0.017-0.108,0.216,0.024,0.2&#xD;&#xA;&#x9;&#x9;&#x9;C80.442,31.364,80.42,31.164,80.284,31.181z"/>
      <path fill="#FFE01B" stroke="#000000" stroke-width="0.0239" d="M80.157,31.343c-0.134,0.016-0.109,0.216,0.025,0.199&#xD;&#xA;&#x9;&#x9;&#x9;C80.315,31.526,80.293,31.326,80.157,31.343z"/>
      <path fill="#FFE01B" stroke="#000000" stroke-width="0.0239" d="M81.38,30.208c0.133,0.017,0.109,0.216-0.025,0.2&#xD;&#xA;&#x9;&#x9;&#x9;C81.222,30.391,81.245,30.191,81.38,30.208z"/>
      <path fill="#FFE01B" stroke="#000000" stroke-width="0.0239" d="M81.507,30.371c0.132,0.017,0.109,0.215-0.024,0.199&#xD;&#xA;&#x9;&#x9;&#x9;C81.349,30.554,81.372,30.354,81.507,30.371z"/>
      <path fill="#FFE01B" stroke="#000000" stroke-width="0.0239" d="M81.633,30.532c0.134,0.017,0.11,0.216-0.023,0.2&#xD;&#xA;&#x9;&#x9;&#x9;S81.498,30.516,81.633,30.532z"/>
      <path fill="#FFE01B" stroke="#000000" stroke-width="0.0239" d="M81.76,30.695c0.134,0.015,0.11,0.215-0.023,0.199&#xD;&#xA;&#x9;&#x9;&#x9;C81.601,30.877,81.625,30.678,81.76,30.695z"/>
      <path fill="#FFE01B" stroke="#000000" stroke-width="0.0239" d="M81.887,30.856c0.134,0.017,0.11,0.216-0.023,0.2&#xD;&#xA;&#x9;&#x9;&#x9;C81.728,31.04,81.751,30.84,81.887,30.856z"/>
      <path fill="#FFE01B" stroke="#000000" stroke-width="0.0239" d="M82.013,31.019c0.135,0.015,0.109,0.215-0.024,0.199&#xD;&#xA;&#x9;&#x9;&#x9;C81.855,31.202,81.878,31.002,82.013,31.019z"/>
      <path fill="#FFE01B" stroke="#000000" stroke-width="0.0239" d="M82.14,31.181c0.134,0.017,0.109,0.216-0.024,0.2&#xD;&#xA;&#x9;&#x9;&#x9;C81.984,31.364,82.006,31.164,82.14,31.181z"/>
      <path fill="#FFE01B" stroke="#000000" stroke-width="0.0239" d="M82.268,31.343c0.133,0.016,0.108,0.216-0.023,0.199&#xD;&#xA;&#x9;&#x9;&#x9;C82.111,31.526,82.132,31.326,82.268,31.343z"/>
      <path fill="#FFE01B" stroke="#000000" stroke-width="0.0239" d="M82.755,31.853c-0.119,0.032-0.188,0.105-0.154,0.175"/>
      <path fill="#FFE01B" stroke="#000000" stroke-width="0.0239" d="M81.61,32.142c0.123,0.074,0.218,0.164,0.256,0.221&#xD;&#xA;&#x9;&#x9;&#x9;c0.039,0.058-0.042,0.169-0.655,0.169s-0.694-0.111-0.656-0.169c0.037-0.057,0.134-0.147,0.257-0.221"/>
      <path fill="#FFE01B" stroke="#000000" stroke-width="0.0239" d="M81.212,30.737c-0.229,0-0.229,0.343,0,0.343&#xD;&#xA;&#x9;&#x9;&#x9;C81.443,31.08,81.446,30.737,81.212,30.737z"/>
      <path fill="#FFE01B" stroke="#000000" stroke-width="0.0239" d="M81.745,31.58c-0.349-0.125-0.532-0.53-0.532-0.677&#xD;&#xA;&#x9;&#x9;&#x9;c0,0.146-0.183,0.552-0.531,0.677H81.745z"/>
      <path fill="#FFE01B" stroke="#000000" stroke-width="0.0239" d="M80.146,31.544c-0.192,0-0.479-0.031-0.754-0.031&#xD;&#xA;&#x9;&#x9;&#x9;c0,0.172,0.149,0.359,0.874,0.359C80.24,31.814,80.146,31.695,80.146,31.544z"/>
      <path fill="none" stroke="#E03A3E" stroke-width="0.0239" d="M79.825,30.165c0.071,0.24-0.1,0.286,0,0.479"/>
      <path fill="none" stroke="#E03A3E" stroke-width="0.0239" d="M79.88,30.846c0.016,0.193-0.188,0.224-0.16,0.448"/>
      <path fill="#FFE01B" stroke="#000000" stroke-width="0.0239" d="M80.046,31.544c0,0,1.853,0,2.072,0&#xD;&#xA;&#x9;&#x9;&#x9;c0.218,0,0.404-0.141,0.562-0.323c0.156-0.182,0.582-0.275,0.65,0.057c0.067,0.333-0.271,0.496-0.575,0.575&#xD;&#xA;&#x9;&#x9;&#x9;c0.104,0.05,0.072,0.186-0.036,0.244c-0.116,0.064-0.211,0.009-0.238-0.054c-0.029-0.074-0.002-0.219,0.207-0.292&#xD;&#xA;&#x9;&#x9;&#x9;c0.195-0.067,0.46-0.234,0.372-0.385c-0.09-0.151-0.323,0.033-0.47,0.245c-0.202,0.296-0.513,0.572-0.936,0.572&#xD;&#xA;&#x9;&#x9;&#x9;c-0.275,0-0.448,0-0.682,0C80.739,32.184,80.083,31.923,80.046,31.544z"/>
    </g>
    <g>
      <path fill="#F9AA53" stroke="#000000" stroke-width="0.0239" d="M70.698,23.847c0.204,0.125,0.151,0.23,0.251,0.391&#xD;&#xA;&#x9;&#x9;&#x9;c0.13,0.208-0.088,0.296,0.016,0.5c0.051,0.101,0.066,0.296-0.042,0.364c-0.197,0.125-0.061,0.257-0.161,0.338&#xD;&#xA;&#x9;&#x9;&#x9;c-0.067,0.055-0.072,0.094-0.083,0.151c-0.037-0.129-0.162-0.26-0.095-0.379c0.067-0.12,0.079-0.245,0.017-0.328&#xD;&#xA;&#x9;&#x9;&#x9;c-0.063-0.083-0.099-0.37-0.017-0.504C70.668,24.242,70.792,24.003,70.698,23.847z"/>
      <path fill="#FFE01B" stroke="#000000" stroke-width="0.0239" d="M72.193,23.961c-0.193,0-0.193,0.286,0,0.286&#xD;&#xA;&#x9;&#x9;&#x9;C72.385,24.248,72.387,23.961,72.193,23.961z"/>
      <path fill="#FFE01B" stroke="#000000" stroke-width="0.0239" d="M72.025,24.203c-0.134,0.016-0.11,0.216,0.023,0.199&#xD;&#xA;&#x9;&#x9;&#x9;C72.182,24.386,72.161,24.186,72.025,24.203z"/>
      <path fill="#FFE01B" stroke="#000000" stroke-width="0.0239" d="M71.898,24.364c-0.134,0.017-0.11,0.216,0.025,0.2&#xD;&#xA;&#x9;&#x9;&#x9;C72.055,24.548,72.034,24.348,71.898,24.364z"/>
      <path fill="#FFE01B" stroke="#000000" stroke-width="0.0239" d="M71.771,24.527c-0.133,0.016-0.11,0.216,0.025,0.199&#xD;&#xA;&#x9;&#x9;&#x9;C71.929,24.71,71.907,24.51,71.771,24.527z"/>
      <path fill="#FFE01B" stroke="#000000" stroke-width="0.0239" d="M71.645,24.689c-0.134,0.016-0.109,0.215,0.023,0.199&#xD;&#xA;&#x9;&#x9;&#x9;S71.781,24.672,71.645,24.689z"/>
      <path fill="#FFE01B" stroke="#000000" stroke-width="0.0239" d="M71.517,24.851c-0.133,0.017-0.109,0.216,0.023,0.2&#xD;&#xA;&#x9;&#x9;&#x9;C71.674,25.034,71.653,24.834,71.517,24.851z"/>
      <path fill="#FFE01B" stroke="#000000" stroke-width="0.0239" d="M71.39,25.013c-0.134,0.016-0.109,0.215,0.023,0.199&#xD;&#xA;&#x9;&#x9;&#x9;C71.549,25.196,71.526,24.997,71.39,25.013z"/>
      <path fill="#FFE01B" stroke="#000000" stroke-width="0.0239" d="M71.264,25.175c-0.135,0.017-0.108,0.216,0.024,0.199&#xD;&#xA;&#x9;&#x9;&#x9;C71.422,25.358,71.399,25.158,71.264,25.175z"/>
      <path fill="#FFE01B" stroke="#000000" stroke-width="0.0239" d="M71.137,25.337c-0.134,0.016-0.109,0.215,0.024,0.199&#xD;&#xA;&#x9;&#x9;&#x9;S71.272,25.321,71.137,25.337z"/>
      <path fill="#FFE01B" stroke="#000000" stroke-width="0.0239" d="M72.359,24.203c0.134,0.016,0.109,0.216-0.024,0.199&#xD;&#xA;&#x9;&#x9;&#x9;C72.202,24.386,72.222,24.186,72.359,24.203z"/>
      <path fill="#FFE01B" stroke="#000000" stroke-width="0.0239" d="M72.487,24.364c0.133,0.017,0.108,0.216-0.025,0.2&#xD;&#xA;&#x9;&#x9;&#x9;C72.329,24.548,72.35,24.348,72.487,24.364z"/>
      <path fill="#FFE01B" stroke="#000000" stroke-width="0.0239" d="M72.614,24.527c0.134,0.016,0.108,0.216-0.024,0.199&#xD;&#xA;&#x9;&#x9;&#x9;C72.455,24.71,72.477,24.51,72.614,24.527z"/>
      <path fill="#FFE01B" stroke="#000000" stroke-width="0.0239" d="M72.74,24.689c0.135,0.016,0.108,0.215-0.024,0.199&#xD;&#xA;&#x9;&#x9;&#x9;C72.582,24.872,72.604,24.672,72.74,24.689z"/>
      <path fill="#FFE01B" stroke="#000000" stroke-width="0.0239" d="M72.867,24.851c0.134,0.017,0.109,0.216-0.024,0.2&#xD;&#xA;&#x9;&#x9;&#x9;C72.708,25.034,72.732,24.834,72.867,24.851z"/>
      <path fill="#FFE01B" stroke="#000000" stroke-width="0.0239" d="M72.994,25.013c0.134,0.016,0.109,0.215-0.024,0.199&#xD;&#xA;&#x9;&#x9;&#x9;S72.857,24.997,72.994,25.013z"/>
      <path fill="#FFE01B" stroke="#000000" stroke-width="0.0239" d="M73.121,25.175c0.134,0.017,0.109,0.216-0.025,0.199&#xD;&#xA;&#x9;&#x9;&#x9;C72.962,25.358,72.984,25.158,73.121,25.175z"/>
      <path fill="#FFE01B" stroke="#000000" stroke-width="0.0239" d="M73.249,25.337c0.132,0.016,0.108,0.215-0.026,0.199&#xD;&#xA;&#x9;&#x9;&#x9;C73.089,25.521,73.112,25.321,73.249,25.337z"/>
      <path fill="#FFE01B" stroke="#000000" stroke-width="0.0239" d="M73.735,25.848c-0.119,0.031-0.187,0.104-0.153,0.174"/>
      <path fill="#FFE01B" stroke="#000000" stroke-width="0.0239" d="M72.589,26.136c0.121,0.075,0.219,0.164,0.257,0.222&#xD;&#xA;&#x9;&#x9;&#x9;s-0.044,0.169-0.657,0.169c-0.611,0-0.692-0.111-0.655-0.169c0.038-0.058,0.134-0.147,0.257-0.222"/>
      <path fill="#FFE01B" stroke="#000000" stroke-width="0.0239" d="M72.193,24.731c-0.231,0-0.231,0.343,0,0.343&#xD;&#xA;&#x9;&#x9;&#x9;C72.421,25.074,72.425,24.731,72.193,24.731z"/>
      <path fill="#FFE01B" stroke="#000000" stroke-width="0.0239" d="M72.723,25.575c-0.348-0.125-0.53-0.531-0.53-0.676&#xD;&#xA;&#x9;&#x9;&#x9;c0,0.146-0.185,0.552-0.532,0.676H72.723z"/>
      <path fill="#FFE01B" stroke="#000000" stroke-width="0.0239" d="M71.125,25.538c-0.193,0-0.479-0.031-0.755-0.031&#xD;&#xA;&#x9;&#x9;&#x9;c0,0.172,0.151,0.359,0.874,0.359C71.218,25.809,71.125,25.689,71.125,25.538z"/>
      <path fill="none" stroke="#E03A3E" stroke-width="0.0239" d="M70.803,24.159c0.072,0.239-0.1,0.287,0,0.479"/>
      <path fill="none" stroke="#E03A3E" stroke-width="0.0239" d="M70.861,24.841c0.015,0.192-0.188,0.224-0.163,0.448"/>
      <path fill="#FFE01B" stroke="#000000" stroke-width="0.0239" d="M71.026,25.538c0,0,1.854,0,2.071,0&#xD;&#xA;&#x9;&#x9;&#x9;c0.22,0,0.406-0.14,0.563-0.323c0.155-0.182,0.582-0.275,0.65,0.058c0.067,0.333-0.271,0.495-0.575,0.575&#xD;&#xA;&#x9;&#x9;&#x9;c0.104,0.049,0.072,0.185-0.037,0.244c-0.114,0.064-0.211,0.008-0.236-0.055c-0.03-0.074-0.003-0.219,0.206-0.292&#xD;&#xA;&#x9;&#x9;&#x9;c0.195-0.067,0.46-0.234,0.371-0.385c-0.088-0.151-0.322,0.033-0.468,0.245c-0.202,0.296-0.515,0.572-0.936,0.572&#xD;&#xA;&#x9;&#x9;&#x9;c-0.276,0-0.448,0-0.682,0C71.718,26.178,71.063,25.918,71.026,25.538z"/>
    </g>
    <g>
      <path fill="#F9AA53" stroke="#000000" stroke-width="0.0239" d="M79.72,23.871c0.201,0.125,0.148,0.229,0.249,0.39&#xD;&#xA;&#x9;&#x9;&#x9;c0.13,0.208-0.089,0.296,0.015,0.5c0.051,0.1,0.068,0.295-0.041,0.364c-0.197,0.125-0.061,0.257-0.161,0.338&#xD;&#xA;&#x9;&#x9;&#x9;c-0.068,0.055-0.073,0.094-0.083,0.151c-0.038-0.13-0.161-0.261-0.093-0.38c0.065-0.12,0.076-0.244,0.015-0.328&#xD;&#xA;&#x9;&#x9;&#x9;c-0.063-0.083-0.1-0.369-0.015-0.505C79.688,24.266,79.814,24.027,79.72,23.871z"/>
      <path fill="#FFE01B" stroke="#000000" stroke-width="0.0239" d="M81.212,23.985c-0.191,0-0.191,0.287,0,0.287&#xD;&#xA;&#x9;&#x9;&#x9;C81.406,24.271,81.409,23.985,81.212,23.985z"/>
      <path fill="#FFE01B" stroke="#000000" stroke-width="0.0239" d="M81.044,24.226c-0.134,0.017-0.108,0.216,0.025,0.2&#xD;&#xA;&#x9;&#x9;&#x9;S81.18,24.21,81.044,24.226z"/>
      <path fill="#FFE01B" stroke="#000000" stroke-width="0.0239" d="M80.918,24.389c-0.134,0.017-0.109,0.215,0.024,0.2&#xD;&#xA;&#x9;&#x9;&#x9;C81.077,24.572,81.055,24.372,80.918,24.389z"/>
      <path fill="#FFE01B" stroke="#000000" stroke-width="0.0239" d="M80.792,24.55c-0.134,0.017-0.109,0.216,0.024,0.2&#xD;&#xA;&#x9;&#x9;&#x9;C80.95,24.733,80.928,24.533,80.792,24.55z"/>
      <path fill="#FFE01B" stroke="#000000" stroke-width="0.0239" d="M80.665,24.713c-0.134,0.017-0.109,0.215,0.024,0.199&#xD;&#xA;&#x9;&#x9;&#x9;C80.824,24.896,80.801,24.696,80.665,24.713z"/>
      <path fill="#FFE01B" stroke="#000000" stroke-width="0.0239" d="M80.539,24.874c-0.135,0.017-0.109,0.216,0.024,0.2&#xD;&#xA;&#x9;&#x9;&#x9;C80.696,25.057,80.674,24.857,80.539,24.874z"/>
      <path fill="#FFE01B" stroke="#000000" stroke-width="0.0239" d="M80.411,25.037c-0.133,0.016-0.108,0.215,0.025,0.199&#xD;&#xA;&#x9;&#x9;&#x9;C80.569,25.22,80.546,25.021,80.411,25.037z"/>
      <path fill="#FFE01B" stroke="#000000" stroke-width="0.0239" d="M80.284,25.198c-0.134,0.017-0.108,0.216,0.024,0.2&#xD;&#xA;&#x9;&#x9;&#x9;C80.442,25.381,80.42,25.182,80.284,25.198z"/>
      <path fill="#FFE01B" stroke="#000000" stroke-width="0.0239" d="M80.157,25.361c-0.134,0.017-0.109,0.215,0.025,0.2&#xD;&#xA;&#x9;&#x9;&#x9;C80.315,25.544,80.293,25.344,80.157,25.361z"/>
      <path fill="#FFE01B" stroke="#000000" stroke-width="0.0239" d="M81.38,24.226c0.133,0.017,0.109,0.216-0.025,0.2&#xD;&#xA;&#x9;&#x9;&#x9;C81.222,24.409,81.245,24.21,81.38,24.226z"/>
      <path fill="#FFE01B" stroke="#000000" stroke-width="0.0239" d="M81.507,24.389c0.132,0.017,0.109,0.215-0.024,0.2&#xD;&#xA;&#x9;&#x9;&#x9;C81.349,24.572,81.372,24.372,81.507,24.389z"/>
      <path fill="#FFE01B" stroke="#000000" stroke-width="0.0239" d="M81.633,24.55c0.134,0.017,0.11,0.216-0.023,0.2&#xD;&#xA;&#x9;&#x9;&#x9;C81.476,24.733,81.498,24.533,81.633,24.55z"/>
      <path fill="#FFE01B" stroke="#000000" stroke-width="0.0239" d="M81.76,24.713c0.134,0.017,0.11,0.215-0.023,0.199&#xD;&#xA;&#x9;&#x9;&#x9;C81.601,24.896,81.625,24.696,81.76,24.713z"/>
      <path fill="#FFE01B" stroke="#000000" stroke-width="0.0239" d="M81.887,24.874c0.134,0.017,0.11,0.216-0.023,0.2&#xD;&#xA;&#x9;&#x9;&#x9;C81.728,25.057,81.751,24.857,81.887,24.874z"/>
      <path fill="#FFE01B" stroke="#000000" stroke-width="0.0239" d="M82.013,25.037c0.135,0.016,0.109,0.215-0.024,0.199&#xD;&#xA;&#x9;&#x9;&#x9;S81.878,25.021,82.013,25.037z"/>
      <path fill="#FFE01B" stroke="#000000" stroke-width="0.0239" d="M82.14,25.198c0.134,0.017,0.109,0.216-0.024,0.2&#xD;&#xA;&#x9;&#x9;&#x9;C81.984,25.381,82.006,25.182,82.14,25.198z"/>
      <path fill="#FFE01B" stroke="#000000" stroke-width="0.0239" d="M82.268,25.361c0.133,0.017,0.108,0.215-0.023,0.2&#xD;&#xA;&#x9;&#x9;&#x9;C82.111,25.544,82.132,25.344,82.268,25.361z"/>
      <path fill="#FFE01B" stroke="#000000" stroke-width="0.0239" d="M82.755,25.872c-0.119,0.031-0.188,0.104-0.154,0.174"/>
      <path fill="#FFE01B" stroke="#000000" stroke-width="0.0239" d="M81.61,26.16c0.123,0.075,0.218,0.164,0.256,0.222&#xD;&#xA;&#x9;&#x9;&#x9;c0.039,0.058-0.042,0.169-0.655,0.169s-0.694-0.111-0.656-0.169c0.037-0.058,0.134-0.147,0.257-0.222"/>
      <path fill="#FFE01B" stroke="#000000" stroke-width="0.0239" d="M81.212,24.755c-0.229,0-0.229,0.343,0,0.343&#xD;&#xA;&#x9;&#x9;&#x9;C81.443,25.098,81.446,24.755,81.212,24.755z"/>
      <path fill="#FFE01B" stroke="#000000" stroke-width="0.0239" d="M81.745,25.598c-0.349-0.124-0.532-0.531-0.532-0.676&#xD;&#xA;&#x9;&#x9;&#x9;c0,0.145-0.183,0.552-0.531,0.676H81.745z"/>
      <path fill="#FFE01B" stroke="#000000" stroke-width="0.0239" d="M80.146,25.562c-0.192,0-0.479-0.031-0.754-0.031&#xD;&#xA;&#x9;&#x9;&#x9;c0,0.172,0.149,0.359,0.874,0.359C80.24,25.833,80.146,25.713,80.146,25.562z"/>
      <path fill="none" stroke="#E03A3E" stroke-width="0.0239" d="M79.825,24.184c0.071,0.239-0.1,0.286,0,0.479"/>
      <path fill="none" stroke="#E03A3E" stroke-width="0.0239" d="M79.88,24.864c0.016,0.193-0.188,0.224-0.16,0.448"/>
      <path fill="#FFE01B" stroke="#000000" stroke-width="0.0239" d="M80.046,25.562c0,0,1.853,0,2.072,0&#xD;&#xA;&#x9;&#x9;&#x9;c0.218,0,0.404-0.141,0.562-0.323c0.156-0.182,0.582-0.275,0.65,0.058c0.067,0.333-0.271,0.496-0.575,0.576&#xD;&#xA;&#x9;&#x9;&#x9;c0.104,0.048,0.072,0.185-0.036,0.245c-0.116,0.063-0.211,0.007-0.238-0.055c-0.029-0.074-0.002-0.22,0.207-0.292&#xD;&#xA;&#x9;&#x9;&#x9;c0.195-0.067,0.46-0.234,0.372-0.385c-0.09-0.151-0.323,0.032-0.47,0.244c-0.202,0.296-0.513,0.572-0.936,0.572&#xD;&#xA;&#x9;&#x9;&#x9;c-0.275,0-0.448,0-0.682,0C80.739,26.202,80.083,25.942,80.046,25.562z"/>
    </g>
    <g>
      <g>
        <path fill="#E48C1A" stroke="#000000" stroke-width="0.0239" d="M77.879,32.029c-0.052,0.178-0.374,0.87-0.499,0.963&#xD;&#xA;&#x9;&#x9;&#x9;&#x9;c0.025,0.104,0.182,0.188,0.327,0.12c0.146-0.068,0.266-0.338,0.313-0.646C78.049,32.273,77.953,32.123,77.879,32.029z"/>
        <path fill="#E48C1A" stroke="#000000" stroke-width="0.0239" d="M75.428,32.274c-0.255,0.135-1.037,0.548-1.201,0.635&#xD;&#xA;&#x9;&#x9;&#x9;&#x9;c-0.1,0.052-0.067,0.233,0.109,0.177c0.244-0.077,0.831-0.438,1.273-0.723C75.555,32.344,75.473,32.305,75.428,32.274z"/>
      </g>
      <path fill="#FFFFFF" stroke="#000000" stroke-width="0.0239" d="M75.741,19.396c0.021-0.301-0.354-0.458-0.313-0.863&#xD;&#xA;&#x9;&#x9;&#x9;c0.015-0.139,0.093-0.266,0.174-0.404c-0.176,0.03-0.317,0.075-0.382,0.185c-0.072,0.125-0.271,0.042-0.332,0.261&#xD;&#xA;&#x9;&#x9;&#x9;c-0.063,0.219-0.377,0.749-0.574,0.988c-0.216,0.266-0.254,0.906,0.322,1.07c0.03,0.083,0.163,0.126,0.116,0.252&#xD;&#xA;&#x9;&#x9;&#x9;c-0.047,0.125-0.083,0.275-0.032,0.396c0.054,0.12,0.071,0.354,0.015,0.478c-0.087,0.198,0,0.421-0.14,0.791&#xD;&#xA;&#x9;&#x9;&#x9;c-0.176,0.469-0.281,1.021-0.363,1.26c-0.084,0.24-0.114,0.354,0.031,0.406c-0.26,1.561-0.26,3.122-0.406,3.621&#xD;&#xA;&#x9;&#x9;&#x9;c-0.146,0.5-0.146,0.854,0.146,0.791c0.082,1.082,0.208,2.123-0.022,2.508c-0.176,0.166-0.207,0.323-0.071,0.489&#xD;&#xA;&#x9;&#x9;&#x9;c-0.292,0.479-0.125,0.863,0.322,0.697c0.447-0.167,0.693-0.405,1.145-0.083c0.219,0.157,0.562,0.302,0.594-0.218&#xD;&#xA;&#x9;&#x9;&#x9;c0.196,0.063,0.386,0.156,0.342,0.291c-0.041,0.136,0.188,0.271,0.479,0.198c0.291-0.073,0.029-0.379,0.25-0.292&#xD;&#xA;&#x9;&#x9;&#x9;c0.396,0.157,0.707-0.167,0.999-0.135c0.291,0.031,0.343-0.104,0.551-0.073c0.209,0.031,0.416-0.206,0.302-0.468&#xD;&#xA;&#x9;&#x9;&#x9;c-0.291-0.666,0.044-0.869-0.124-1.239c-0.197-0.437-0.104-1.02-0.729-1.936c0.24-0.448,0.102-0.684-0.032-0.957&#xD;&#xA;&#x9;&#x9;&#x9;c-0.488-1.01-0.364-2.758-0.696-3.445c0.208,0.084,0.376-0.342,0.178-0.958c-0.127-0.385-0.04-0.597-0.188-0.895&#xD;&#xA;&#x9;&#x9;&#x9;c-0.094-0.188-0.104-0.344-0.062-0.468c0.041-0.125,0.036-0.167,0.015-0.26c-0.021-0.093,0.017-0.265,0.131-0.359&#xD;&#xA;&#x9;&#x9;&#x9;c-0.28-0.358-0.224-0.896-0.063-1.211c0.292-0.573,0.469-0.739,0.608-0.448c0.085-0.13,0.043-0.309-0.103-0.4&#xD;&#xA;&#x9;&#x9;&#x9;c-0.141-0.089-0.338-0.183-0.38-0.276c-0.042-0.094-0.167-0.292-0.271-0.303c-0.009-0.19-0.053-0.383-0.397-0.379&#xD;&#xA;&#x9;&#x9;&#x9;c0.115,0.215-0.06,0.49-0.299,0.65C76.23,18.823,75.896,19.114,75.741,19.396"/>
      <g>
        <path fill="#FDE2CB" stroke="#000000" stroke-width="0.0239" d="M74.888,18.574c-0.334,0.12-0.576,0.33-0.491,0.887&#xD;&#xA;&#x9;&#x9;&#x9;&#x9;C74.546,19.229,74.774,18.901,74.888,18.574z"/>
        <path fill="#FDE2CB" stroke="#000000" stroke-width="0.0239" d="M76.615,17.45c-0.01,0.177,0,0.312,0.146,0.531&#xD;&#xA;&#x9;&#x9;&#x9;&#x9;c0.146,0.218-0.03,0.509-0.28,0.676c-0.25,0.167-0.584,0.458-0.739,0.739c0.021-0.301-0.354-0.458-0.313-0.863&#xD;&#xA;&#x9;&#x9;&#x9;&#x9;c0.029-0.291,0.354-0.531,0.349-0.937c-0.125,0.031-0.381,0.041-0.521-0.016c-0.075-0.031-0.091-0.143-0.06-0.231&#xD;&#xA;&#x9;&#x9;&#x9;&#x9;c0.026-0.077-0.081-0.101-0.072-0.2c-0.006-0.005-0.013-0.011-0.019-0.017c-0.063-0.057-0.009-0.087-0.003-0.189&#xD;&#xA;&#x9;&#x9;&#x9;&#x9;c-0.028-0.014-0.061-0.028-0.09-0.035c-0.098-0.018-0.059-0.13-0.02-0.161c0.074-0.058,0.131-0.156,0.182-0.213&#xD;&#xA;&#x9;&#x9;&#x9;&#x9;c0.099-0.106,0.071-0.146,0.055-0.234c-0.015-0.088,0.012-0.359,0.079-0.468C76.563,14.827,76.667,16.419,76.615,17.45z"/>
        <path fill="#FDE2CB" stroke="#000000" stroke-width="0.0239" d="M76.891,25.401c0.1,0.01,0.161-0.079,0.124-0.157&#xD;&#xA;&#x9;&#x9;&#x9;&#x9;c0.094,0.005,0.157-0.042,0.141-0.12c0.059-0.005,0.099-0.026,0.131-0.094c0.029-0.067-0.047-0.187-0.172-0.073&#xD;&#xA;&#x9;&#x9;&#x9;&#x9;c0-0.021-0.016-0.037-0.037-0.037c0.089-0.067,0.151-0.166,0.156-0.358c0.006-0.193,0.049-0.588,0.234-0.869&#xD;&#xA;&#x9;&#x9;&#x9;&#x9;c0.365-0.551,0.827-1.241,0.968-1.613c0.188-0.5-0.038-0.844-0.063-1.03c-0.082-0.613-0.271-1.28-0.442-1.686&#xD;&#xA;&#x9;&#x9;&#x9;&#x9;c-0.14-0.292-0.316-0.125-0.608,0.448c-0.16,0.315-0.217,0.853,0.063,1.211c0.104,0.125,0.27,0.343,0.334,0.396&#xD;&#xA;&#x9;&#x9;&#x9;&#x9;c0.061,0.052,0.048,0.082,0.01,0.171c-0.109,0.25-0.48,1.02-0.677,1.675c-0.182,0.602-0.157,0.798-0.418,1.176&#xD;&#xA;&#x9;&#x9;&#x9;&#x9;c-0.114,0.167-0.196,0.374-0.196,0.583c0,0.208-0.008,0.268,0.156,0.416c0.057,0.052,0.104,0.109,0.219,0.12&#xD;&#xA;&#x9;&#x9;&#x9;&#x9;C76.926,25.572,76.963,25.473,76.891,25.401z"/>
        <path fill="#FDE2CB" stroke="#000000" stroke-width="0.0239" d="M74.767,21.495c-0.098,0.247-0.369,0.367-1.015,0.908&#xD;&#xA;&#x9;&#x9;&#x9;&#x9;c-0.324,0.271-0.541,0.411-0.724,0.536c-0.182,0.125-0.274,0.234-0.274,0.406c0,0.171-0.068,0.25-0.047,0.475&#xD;&#xA;&#x9;&#x9;&#x9;&#x9;c0.02,0.202-0.132,0.254-0.141,0.368c-0.011,0.114-0.078,0.146-0.114,0.13c-0.037-0.016-0.073-0.021-0.058-0.125&#xD;&#xA;&#x9;&#x9;&#x9;&#x9;c0.017-0.104,0.064-0.146,0.074-0.25c-0.077,0.067-0.083,0.229-0.108,0.335c-0.022,0.1-0.054,0.123,0.028,0.164&#xD;&#xA;&#x9;&#x9;&#x9;&#x9;c0.083,0.042,0.067,0.156-0.024,0.156c-0.095,0-0.173-0.049-0.184-0.096c-0.098-0.013-0.11-0.073-0.126-0.185&#xD;&#xA;&#x9;&#x9;&#x9;&#x9;c-0.057-0.01-0.066-0.005-0.102-0.068c-0.021-0.032-0.029-0.058-0.03-0.099c-0.151-0.133-0.059-0.312,0.014-0.416&#xD;&#xA;&#x9;&#x9;&#x9;&#x9;c0.072-0.104,0.151-0.265,0.234-0.442c0.083-0.177,0.125-0.135,0.197-0.302c0.073-0.167,0.334-0.286,0.625-0.734&#xD;&#xA;&#x9;&#x9;&#x9;&#x9;c0.198-0.305,0.759-0.916,0.937-1.051c0.177-0.136,0.197-0.208,0.229-0.333c0.031-0.125,0.106-0.286,0.17-0.422&#xD;&#xA;&#x9;&#x9;&#x9;&#x9;c0.08,0.073,0.152,0.149,0.31,0.177c0.022,0.071,0.069,0.097,0.096,0.128c0.025,0.031,0.042,0.065,0.011,0.153&#xD;&#xA;&#x9;&#x9;&#x9;&#x9;c-0.032,0.089-0.086,0.223-0.029,0.362C74.747,21.347,74.757,21.43,74.767,21.495z"/>
        <path fill="#FDE2CB" stroke="#000000" stroke-width="0.0239" d="M75.428,32.274c-0.255,0.135-1.036,0.551-1.201,0.635&#xD;&#xA;&#x9;&#x9;&#x9;&#x9;c-0.167,0.083-0.236-0.107-0.203-0.156c-0.021-0.052-0.038-0.109,0.032-0.162c0.067-0.052,0.234-0.232,0.396-0.362&#xD;&#xA;&#x9;&#x9;&#x9;&#x9;c0.322-0.143,0.552-0.257,0.925,0.009C75.402,32.255,75.412,32.266,75.428,32.274z"/>
        <path fill="#FDE2CB" stroke="#000000" stroke-width="0.0239" d="M77.862,32.099c-0.241,0.061-0.504,0.243-0.82,0.117&#xD;&#xA;&#x9;&#x9;&#x9;&#x9;c-0.201-0.08-0.003,0.166-0.183,0.266c0.089,0.098,0.256,0.212,0.308,0.317c0.053,0.104,0.172,0.229,0.296,0.219&#xD;&#xA;&#x9;&#x9;&#x9;&#x9;c0.125-0.01,0.198-0.12,0.142-0.281c0.135-0.01,0.191-0.094,0.165-0.209c0.079-0.042,0.114-0.139,0.079-0.202&#xD;&#xA;&#x9;&#x9;&#x9;&#x9;C77.901,32.274,77.893,32.183,77.862,32.099z"/>
      </g>
      <g>
        <path fill="#E48C1A" stroke="#000000" stroke-width="0.0239" d="M74.17,32.481c0.062-0.051,0.365-0.005,0.502,0.193l0.262-0.138&#xD;&#xA;&#x9;&#x9;&#x9;&#x9;c-0.035-0.042-0.114-0.085-0.182-0.109c0.09-0.104,0.214-0.26,0.277-0.341c-0.081-0.013-0.197-0.01-0.295,0.03&#xD;&#xA;&#x9;&#x9;&#x9;&#x9;c-0.082,0.083-0.16,0.171-0.194,0.213c-0.041-0.008-0.177-0.004-0.227,0c-0.036,0.001-0.047,0.013-0.14,0.098&#xD;&#xA;&#x9;&#x9;&#x9;&#x9;C74.153,32.446,74.165,32.474,74.17,32.481z"/>
        <path fill="#E48C1A" stroke="#000000" stroke-width="0.0239" d="M77.643,32.173c-0.182,0.067-0.377,0.132-0.602,0.043&#xD;&#xA;&#x9;&#x9;&#x9;&#x9;c-0.201-0.08,0.003,0.167-0.201,0.276c0.053,0.083,0.158,0.172,0.201,0.234c0.029,0.041,0.063,0.03,0.093,0.021&#xD;&#xA;&#x9;&#x9;&#x9;&#x9;c0.012-0.083,0.157-0.211,0.3-0.18C77.439,32.427,77.545,32.252,77.643,32.173z"/>
      </g>
      <path fill="#FFF696" stroke="#000000" stroke-width="0.0239" d="M76.813,17.085c-0.059,0.068-0.042,0.198,0.025,0.266&#xD;&#xA;&#x9;&#x9;&#x9;s0.203,0.083,0.296,0c0.085,0.047,0.229,0.005,0.229-0.177c0.085,0,0.214-0.062,0.225-0.198c0.01-0.13-0.088-0.297-0.225-0.297&#xD;&#xA;&#x9;&#x9;&#x9;c0.1-0.301-0.051-0.717-0.207-0.988s-0.572-0.552-0.879-0.39c-0.104-0.23-0.381-0.276-0.547-0.068&#xD;&#xA;&#x9;&#x9;&#x9;c-0.167-0.094-0.406-0.005-0.359,0.208c-0.135-0.02-0.285,0.032-0.332,0.162c-0.047,0.129,0.054,0.305,0.229,0.323&#xD;&#xA;&#x9;&#x9;&#x9;c0.104,0.01,0.358-0.01,0.563-0.203c0,0.167,0.088,0.286,0.333,0.286c-0.094,0.308,0.025,0.51,0.317,0.546&#xD;&#xA;&#x9;&#x9;&#x9;c-0.042,0.146-0.005,0.385,0.087,0.458c-0.043,0.057-0.116,0.083-0.155,0.086c0,0.115,0.059,0.273,0.188,0.289&#xD;&#xA;&#x9;&#x9;&#x9;c-0.052,0.104,0.093,0.27,0.202,0.259c0.11-0.01,0.209-0.135,0.209-0.239"/>
      <g>
        <path fill="none" stroke="#000000" stroke-width="0.0239" d="M76.235,17.022c0.036,0.1,0.235,0.114,0.332-0.01"/>
        <path fill="none" stroke="#000000" stroke-width="0.0239" d="M76.241,15.555c0.104,0.177,0.296,0.125,0.404,0.053"/>
        <path fill="none" stroke="#000000" stroke-width="0.0239" d="M76.63,15.634c0.015,0.088,0.146,0.166,0.313,0.161"/>
        <path fill="none" stroke="#000000" stroke-width="0.0239" d="M76.838,16.04c-0.011,0.093,0.026,0.192,0.095,0.265"/>
        <path fill="none" stroke="#000000" stroke-width="0.0239" d="M77.363,16.679c-0.02,0.079-0.114,0.136-0.222,0.089"/>
        <path fill="none" stroke="#000000" stroke-width="0.0239" d="M77.224,16.799c0,0.057-0.058,0.146-0.119,0.162"/>
        <path fill="none" stroke="#000000" stroke-width="0.0239" d="M77.134,17.351c0.085-0.062,0.12-0.271-0.047-0.4"/>
        <path fill="none" stroke="#000000" stroke-width="0.0239" d="M76.48,16.555c0.087,0.016,0.192-0.052,0.233-0.145"/>
        <path fill="none" stroke="#000000" stroke-width="0.0239" d="M75.354,16.261c0.104-0.006,0.253-0.015,0.423,0.135"/>
        <path fill="none" stroke="#000000" stroke-width="0.0239" d="M75.777,17.596c0.125-0.031,0.271-0.151,0.432-0.313"/>
        <path fill="none" stroke="#000000" stroke-width="0.0239" d="M75.125,17.149c0.057,0.044,0.109,0.048,0.157,0.042"/>
        <path fill="none" stroke="#000000" stroke-width="0.0239" d="M75.103,16.943c0.02,0.011,0.038,0.023,0.052,0.031&#xD;&#xA;&#x9;&#x9;&#x9;&#x9;c0.058,0.031,0.122-0.034,0.112-0.066"/>
        <path fill="none" stroke="#000000" stroke-width="0.0239" d="M74.636,20.632c0.033,0.009,0.068,0.017,0.104,0.022&#xD;&#xA;&#x9;&#x9;&#x9;&#x9;c0.448,0.073,0.756-0.375,0.771-0.676c0.022-0.438-0.218-0.313-0.259-0.833"/>
        <path fill="none" stroke="#000000" stroke-width="0.0239" d="M71.932,23.975c-0.006,0.086-0.012,0.138-0.009,0.176"/>
        <path fill="none" stroke="#000000" stroke-width="0.0239" d="M72.093,24.058c-0.035,0.099-0.041,0.182-0.038,0.26"/>
        <path fill="none" stroke="#000000" stroke-width="0.0239" d="M72.181,24.503c-0.023-0.112-0.016-0.201,0.017-0.362"/>
        <path fill="none" stroke="#000000" stroke-width="0.0239" d="M76.891,25.401c-0.145-0.027-0.149-0.042-0.199-0.123&#xD;&#xA;&#x9;&#x9;&#x9;&#x9;c-0.052-0.087-0.052-0.12-0.052-0.211"/>
        <path fill="none" stroke="#000000" stroke-width="0.0239" d="M77.015,25.244c-0.094,0-0.124-0.01-0.175-0.073&#xD;&#xA;&#x9;&#x9;&#x9;&#x9;c-0.036-0.046-0.063-0.07-0.049-0.156"/>
        <path fill="none" stroke="#000000" stroke-width="0.0239" d="M77.156,25.125c-0.106,0.016-0.226,0.005-0.221-0.198"/>
        <path fill="none" stroke="#000000" stroke-width="0.0239" d="M75.928,19.583c0.155-0.521,0.945-0.75,1.124-1.009"/>
        <path fill="none" stroke="#000000" stroke-width="0.0239" d="M77.156,19.75c0.125-0.281,0.25-0.541,0.427-0.646"/>
        <path fill="none" stroke="#000000" stroke-width="0.0239" d="M77.249,20c-0.103,0.405-0.425,0.655-0.614,0.666&#xD;&#xA;&#x9;&#x9;&#x9;&#x9;c-0.353,0.021-0.529-0.063-0.653-0.343c0.165,0.259,0.499,0.53,1.092,0.072"/>
        <path fill="none" stroke="#000000" stroke-width="0.0239" d="M75.47,20.166c0.083,0.094,0.344,0.052,0.458-0.032"/>
        <path fill="none" stroke="#000000" stroke-width="0.0239" d="M75.844,19.843c0,0.157,0.052,0.344,0.281,0.292&#xD;&#xA;&#x9;&#x9;&#x9;&#x9;c0.052,0.271,0.395,0.281,0.594,0.198c0.197-0.083,0.427-0.25,0.572-0.479"/>
        <path fill="none" stroke="#000000" stroke-width="0.0239" d="M76.634,20.666c0.043,0.073,0.318,0.239,0.356,0.358"/>
        <path fill="none" stroke="#000000" stroke-width="0.0239" d="M76.801,20.619c0.084-0.037,0.246-0.042,0.298-0.021"/>
        <path fill="none" stroke="#000000" stroke-width="0.0239" d="M75.417,20.28c0.021,0.396,0.011,0.896-0.062,1.103"/>
        <path fill="none" stroke="#000000" stroke-width="0.0239" d="M75.73,20.447c0.062,0.218,0.198,0.562,0.188,0.833"/>
        <path fill="none" stroke="#000000" stroke-width="0.0239" d="M75.428,20.385c0,0.218-0.28,0.364-0.313,0.634"/>
        <path fill="none" stroke="#000000" stroke-width="0.0239" d="M76.208,20.821c0.073-0.052,0.188-0.052,0.302,0.354"/>
        <path fill="none" stroke="#000000" stroke-width="0.0239" d="M76.116,21.029c0.062-0.167,0.218,0.177,0.354,0.458"/>
        <path fill="none" stroke="#000000" stroke-width="0.0239" d="M75.387,20.342c0.146-0.187-0.135-0.363-0.157-0.624"/>
        <path fill="none" stroke="#000000" stroke-width="0.0239" d="M77.105,18.844c-0.271,0.447-0.614,0.26-0.896,0.718"/>
        <path fill="none" stroke="#000000" stroke-width="0.0239" d="M74.845,22.236c0.197,0.031,0.448-0.073,0.593-0.156&#xD;&#xA;&#x9;&#x9;&#x9;&#x9;c0.199,0.167,0.479,0.073,0.646-0.01c0.198,0.187,0.531,0.208,0.74,0.115c0.082,0.051,0.249,0.094,0.332,0.083"/>
        <path fill="none" stroke="#000000" stroke-width="0.0239" d="M75.367,22.424c-0.032,0.187-0.043,0.541-0.053,0.604"/>
        <path fill="none" stroke="#000000" stroke-width="0.0239" d="M75.886,22.434c0.031,0.177,0.052,0.479,0.042,0.667"/>
        <path fill="none" stroke="#000000" stroke-width="0.0239" d="M76.312,22.445c0.044,0.188,0.126,0.728,0.168,0.875"/>
        <path fill="none" stroke="#000000" stroke-width="0.0239" d="M76.625,22.705c0.052,0.146,0.124,0.406,0.135,0.49"/>
        <path fill="none" stroke="#000000" stroke-width="0.0239" d="M76.541,22.352c0.126,0.208,0.386,0.229,0.564,0.114"/>
        <path fill="none" stroke="#000000" stroke-width="0.0239" d="M74.867,21.758c0.021-0.167,0.052-0.323,0.114-0.395"/>
        <path fill="none" stroke="#000000" stroke-width="0.0239" d="M74.263,24.214c0.078,0.036,0.192-0.084,0.244-0.151&#xD;&#xA;&#x9;&#x9;&#x9;&#x9;c0.053-0.067,0.067-0.062,0.114-0.031c0.048,0.031,0.113,0.021,0.173-0.036c0.058-0.057,0.149-0.141,0.254-0.073&#xD;&#xA;&#x9;&#x9;&#x9;&#x9;c0.104,0.068,0.245,0.083,0.339,0.036c0.094-0.046,0.337,0.079,0.536-0.052c0.196-0.13,0.482,0.068,0.691-0.01"/>
        <path fill="none" stroke="#000000" stroke-width="0.0239" d="M74.606,24.058c-0.104,0.562-0.333,2.238-0.385,2.997"/>
        <path fill="none" stroke="#000000" stroke-width="0.0239" d="M75.148,23.985c-0.053,0.302-0.229,1.114-0.26,1.541"/>
        <path fill="none" stroke="#000000" stroke-width="0.0239" d="M74.003,28.626c0.224-0.01,0.343-0.146,0.515-0.063&#xD;&#xA;&#x9;&#x9;&#x9;&#x9;c0.171,0.083,0.405,0.146,0.516,0.13"/>
        <path fill="none" stroke="#000000" stroke-width="0.0239" d="M75.215,28.667c0.094-0.078,0.244,0,0.308-0.093&#xD;&#xA;&#x9;&#x9;&#x9;&#x9;c0.062-0.094,0.125-2.383,0.207-3.102c-0.01,0.801-0.021,2.664-0.021,2.967c0.104,0,0.261,0.073,0.333,0.166&#xD;&#xA;&#x9;&#x9;&#x9;&#x9;c0.073,0.094,0.209,0.094,0.27,0.011c0.064-0.084,0.251-0.125,0.375-0.084c0.126,0.042,0.373-0.02,0.354-0.177&#xD;&#xA;&#x9;&#x9;&#x9;&#x9;c-0.094-0.77-0.396-1.54-0.385-2.362"/>
        <path fill="none" stroke="#000000" stroke-width="0.0239" d="M77.062,25.765c-0.042,0.916,0.5,1.81,0.5,2.206"/>
        <path fill="none" stroke="#000000" stroke-width="0.0239" d="M77.042,28.429c0.229,0.114,0.524,0.119,0.624,0.031&#xD;&#xA;&#x9;&#x9;&#x9;&#x9;c0.168-0.146,0.292,0.063,0.375-0.094"/>
        <path fill="none" stroke="#000000" stroke-width="0.0239" d="M74.304,30.999c-0.239,0.072-0.4,0.177-0.441,0.291"/>
        <path fill="none" stroke="#000000" stroke-width="0.0239" d="M74.034,31.551c0.099,0.094,0.219,0.026,0.297-0.042&#xD;&#xA;&#x9;&#x9;&#x9;&#x9;c0.078-0.067,0.167-0.062,0.229-0.015c0.062,0.047,0.171,0.088,0.249,0.021"/>
        <path fill="none" stroke="#000000" stroke-width="0.0239" d="M74.606,29.604c0.021,0.5,0.021,1.259,0,1.457&#xD;&#xA;&#x9;&#x9;&#x9;&#x9;c-0.021,0.199,0.036,0.344,0.146,0.422c0.108,0.078,0.214-0.044,0.338,0.026c0.083,0.047,0.233,0.063,0.321-0.062"/>
        <path fill="none" stroke="#000000" stroke-width="0.0239" d="M75.148,28.97c0.029,0.542,0.114,1.52,0.146,1.977&#xD;&#xA;&#x9;&#x9;&#x9;&#x9;c0.03,0.458,0.124,0.552,0.322,0.718c0.198,0.167,0.354,0.208,0.302-0.135c-0.052-0.344-0.25-0.864-0.229-1.312&#xD;&#xA;&#x9;&#x9;&#x9;&#x9;c0.021-0.448,0.01-1.175-0.021-1.415"/>
        <path fill="none" stroke="#000000" stroke-width="0.0239" d="M76.771,31.873c-0.052-0.666-0.156-1.603-0.198-2.217&#xD;&#xA;&#x9;&#x9;&#x9;&#x9;c-0.01-0.156,0.021-0.333,0.114,0.25c0.094,0.583,0.323,1.52,0.313,1.727c-0.009,0.208,0.105,0.271,0.281,0.094"/>
        <path fill="none" stroke="#000000" stroke-width="0.0239" d="M76.262,30.094c0.04,0.157,0.071,0.458,0.082,0.614"/>
        <path fill="none" stroke="#000000" stroke-width="0.0239" d="M77.229,30.365c0.114,0.343,0.291,0.843,0.251,1.217&#xD;&#xA;&#x9;&#x9;&#x9;&#x9;c0.07-0.26,0.207-0.344,0.55-0.197"/>
        <path fill="none" stroke="#000000" stroke-width="0.0239" d="M77.042,29.064c0.052,0.343,0.25,1.04,0.396,1.28"/>
        <path fill="none" stroke="#000000" stroke-width="0.0239" d="M77.187,28.803c0.261,0.542,0.303,1.125,0.468,1.374&#xD;&#xA;&#x9;&#x9;&#x9;&#x9;c0.168,0.25,0.084,0.561,0.293,0.77c0.093,0.094,0.239,0.219,0.249,0.343c-0.01-0.78-0.292-0.853-0.292-1.103"/>
        <path fill="none" stroke="#000000" stroke-width="0.0239" d="M77.729,28.657c0.01,0.469,0.084,0.551,0.239,0.885&#xD;&#xA;&#x9;&#x9;&#x9;&#x9;s0.426,1.051,0.468,1.353"/>
        <path fill="none" stroke="#000000" stroke-width="0.0239" d="M78.008,31.592c0.208-0.177,0.521,0.063,0.678-0.083&#xD;&#xA;&#x9;&#x9;&#x9;&#x9;c-0.031,0.125-0.156,0.25-0.281,0.291"/>
        <path fill="none" stroke="#000000" stroke-width="0.0239" d="M74.024,32.752c0.021-0.031,0.091-0.094,0.146-0.102"/>
        <path fill="none" stroke="#000000" stroke-width="0.0239" d="M77.604,32.737c-0.027-0.117-0.113-0.125-0.17-0.169"/>
        <path fill="none" stroke="#000000" stroke-width="0.0239" d="M77.769,32.528c-0.05-0.119-0.176-0.088-0.243-0.114"/>
        <path fill="none" stroke="#000000" stroke-width="0.0239" d="M77.848,32.326c-0.031-0.057-0.183-0.044-0.234-0.081"/>
      </g>
      <path d="M75.35,16.365c-0.003,0.03,0.041,0.088,0.151,0.088c0.081,0,0.119,0.016,0.177,0.042c-0.086-0.002-0.106,0.099-0.21,0.057&#xD;&#xA;&#x9;&#x9;&#x9;c-0.079-0.032-0.081-0.088-0.059-0.119C75.376,16.417,75.354,16.41,75.35,16.365z"/>
    </g>
  </g>
</svg>