<svg version="1.2" baseProfile="tiny" viewBox="0 0 48.84 40.931" xmlns:xlink="http://www.w3.org/1999/xlink" xmlns="http://www.w3.org/2000/svg">
<path style="fill:#ffffff;" d="M14.4298,20.2768L12.21,20.2768L12.21,5.2519L14.4298,5.2519L14.4298,20.2768M9.9902,5.2519L7.77,5.2519L7.77,20.2768L7.77,20.2768L9.9902,20.2768L9.9902,5.2519L9.9902,5.2519M3.3299,20.2768L5.5502,20.2768L5.5502,5.2519L3.3299,5.2519L3.3299,20.2768L3.3299,20.2768M41.07,5.2519L38.8498,5.2519L38.8498,20.2768L38.8498,20.2768L41.071,20.2768L41.071,5.2519M47.7289,5.2519L47.7289,20.2768L48.839,20.2768L48.839,5.2519L47.7289,5.2519L47.7289,5.2519M1.1101,5.2519L0.0,5.2519L0.0,5.2519L0.0,20.2768L1.1101,20.2768L1.1101,5.2519M36.63,5.2519L34.4102,5.2519L34.4102,20.2768L36.63,20.2768L36.63,5.2519M45.5101,5.2519L43.2898,5.2519L43.2898,20.2768L45.5101,20.2768L45.5101,5.2519M31.9321,33.1611L31.9321,30.941L16.9069,30.941L16.9069,30.941L16.9069,33.1611L31.9321,33.1611L31.9321,33.1611M31.9321,28.7209L31.9321,26.5012L16.9069,26.5012L16.9069,28.7209L16.9069,28.7209L31.9321,28.7209L31.9321,28.7209M16.9069,24.2811L31.9311,24.2811L31.9311,22.0602L16.9069,22.0602L16.9069,24.2811L16.9069,24.2811M29.9702,5.2519L29.9702,17.6208L18.8698,17.6208L18.8698,5.2519L16.65,5.2519L16.65,19.8401L32.189,19.8401L32.189,5.2519L29.9702,5.2519L29.9702,5.2519M31.9321,37.6009L31.9321,35.3812L16.9069,35.3812L16.9069,37.6009L16.9069,37.6009L31.9321,37.6009L31.9321,37.6009M25.5301,5.2519L25.5301,13.1802L23.3099,13.1802L23.3099,13.1802L23.3099,5.2519L21.0901,5.2519L21.0901,15.4011L27.7499,15.4011L27.7499,5.2519L25.5301,5.2519L25.5301,5.2519M31.9321,39.8209L16.9069,39.8209L16.9069,39.8209L16.9069,40.9302L31.9311,40.9302L31.9311,39.8209Z"/>
</svg>