<svg version="1.2" baseProfile="tiny" viewBox="0 0 48.84 40.931" xmlns:xlink="http://www.w3.org/1999/xlink" xmlns="http://www.w3.org/2000/svg">
<path style="fill:#ffffff;" d="M47.7289,2.2201C47.7289,1.6098,47.2302,1.11,46.6202,1.11C46.0102,1.11,45.5101,1.6098,45.5101,2.2201L43.2898,2.2201C43.2898,1.6098,42.7902,1.11,42.1802,1.11C41.5702,1.11,41.071,1.6098,41.071,2.2201L38.8498,2.2201L38.8498,2.2201C38.8498,1.6098,38.3511,1.11,37.7411,1.11C37.1311,1.11,36.631,1.6098,36.631,2.2201L34.4112,2.2201C34.4112,1.6098,33.9111,1.11,33.3011,1.11C32.6911,1.11,32.1909,1.6098,32.1909,2.2201L29.9712,2.2201C29.9712,1.6098,29.471,1.11,28.862,1.11C28.252,1.11,27.7519,1.6098,27.7519,2.2201L25.5321,2.2201C25.5321,1.6098,25.032,1.11,24.422,1.11C23.8119,1.11,23.3118,1.6098,23.3118,2.2201L21.092,2.2201C21.092,1.6098,20.5919,1.11,19.9819,1.11C19.3729,1.11,18.8732,1.6098,18.8732,2.2201L16.653,2.2201C16.653,1.6098,16.1529,1.11,15.5428,1.11C14.9328,1.11,14.4332,1.6098,14.4332,2.2201L12.2129,2.2201C12.2129,1.6098,11.7128,1.11,11.1028,1.11C10.4928,1.11,9.9902,1.609,9.9902,2.2201L7.77,2.2201L7.77,2.2201C7.77,1.6098,7.2708,1.11,6.6608,1.11C6.0508,1.11,5.5512,1.6098,5.5512,2.2201L3.3299,2.2201L3.3299,2.2201C3.3299,1.6098,2.8298,1.11,2.2198,1.11C1.6098,1.11,1.1101,1.609,1.1101,2.2201L0.0,2.2201L0.0,2.2201L0.0,23.3102L1.1101,23.3102C1.1101,23.9201,1.6088,24.4198,2.2188,24.4198C2.8288,24.4198,3.3289,23.9201,3.3289,23.3102L5.5492,23.3102C5.5492,23.9201,6.0488,24.4198,6.6588,24.4198C7.2689,24.4198,7.768,23.9201,7.768,23.3102L9.9902,23.3102L9.9902,23.3102C9.9902,23.9201,10.4889,24.4198,11.0989,24.4198C11.7089,24.4198,12.209,23.9201,12.209,23.3102L13.874,23.3102L13.874,24.2819C13.264,24.2819,12.7638,24.7809,12.7638,25.3911C12.7638,26.001,13.264,26.5012,13.874,26.5012L13.874,28.7209C13.264,28.7209,12.7638,29.2211,12.7638,29.8309C12.7638,30.4412,13.264,30.941,13.874,30.941L13.874,33.1611C13.264,33.1611,12.7638,33.6608,12.7638,34.2699C12.7638,34.8802,13.264,35.3799,13.874,35.3799L13.874,37.6C13.264,37.6,12.7638,38.0998,12.7638,38.7101C12.7638,39.32,13.264,39.8201,13.874,39.8201L13.874,40.929L34.9641,40.929L34.9641,39.8201C35.5741,39.8201,36.0742,39.32,36.0742,38.7101C36.0742,38.0998,35.5741,37.6,34.9641,37.6L34.9641,35.3799C35.5741,35.3799,36.0742,34.8802,36.0742,34.2699C36.0742,33.6608,35.5741,33.1611,34.9641,33.1611L34.9641,30.941C35.5741,30.941,36.0742,30.4412,36.0742,29.8309C36.0742,29.2211,35.5741,28.7209,34.9641,28.7209L34.9641,26.5012C35.5741,26.5012,36.0742,26.001,36.0742,25.3911C36.0742,24.7809,35.5741,24.2819,34.9641,24.2819L34.9641,23.3102L36.629,23.3102C36.629,23.9201,37.1291,24.4198,37.7392,24.4198C38.3492,24.4198,38.8478,23.9201,38.8478,23.3102L41.0691,23.3102C41.0691,23.9201,41.5682,24.4198,42.1782,24.4198C42.7882,24.4198,43.2879,23.9201,43.2879,23.3102L45.5081,23.3102C45.5081,23.9201,46.0078,24.4198,46.6178,24.4198C47.2278,24.4198,47.7269,23.9201,47.7269,23.3102L48.8371,23.3102L48.8371,2.2201L47.7289,2.2201L47.7289,2.2201Z"/>
</svg>