<svg version="1.2" baseProfile="tiny" id="EdgeSVG_HR615" x="0px" y="0px" width="48.84px" height="40.931px" viewBox="0 0 48.84 40.931" xmlns:xlink="http://www.w3.org/1999/xlink" xmlns="http://www.w3.org/2000/svg">
  <linearGradient id="SVGID_2_" gradientUnits="userSpaceOnUse" x1="24.4194" y1="2.2891" x2="24.4194" y2="23.33">
    <stop offset="0" style="stop-color:#000000;stop-opacity:0.5"/>
    <stop offset="0.05" style="stop-color:#000000;stop-opacity:0.5"/>
    <stop offset="0.5" style="stop-color:#FFFFFF;stop-opacity:0.5"/>
    <stop offset="0.95" style="stop-color:#000000;stop-opacity:0.5"/>
    <stop offset="1" style="stop-color:#000000;stop-opacity:0.5"/>
  </linearGradient>
  <path fill="url(#SVGID_2_)" d="M3.33,2.22h2.22v21.09H3.33V2.22z M21.09,15.401l2.22-2.221V2.22h-2.22V15.401z M12.21,23.31h1.665&#xD;&#xA;&#x9;&#x9;v-0.693l0.555-0.556V2.22h-2.22V23.31z M25.53,13.181l2.22,2.221V2.22h-2.22V13.181z M29.97,17.621l2.22,2.22V2.22h-2.22V17.621z&#xD;&#xA;&#x9;&#x9; M34.41,22.061l0.555,0.556v0.693h1.665V2.22h-2.22V22.061z M16.65,19.841l2.22-2.22V2.22h-2.22V19.841z M38.85,23.31h2.221V2.22&#xD;&#xA;&#x9;&#x9;H38.85V23.31z M7.77,23.31H9.99V2.22H7.77V23.31z M0,23.31h1.11V2.22H0V23.31z M43.29,23.31h2.22V2.22h-2.22V23.31z M47.729,2.22&#xD;&#xA;&#x9;&#x9;v21.09h1.11V2.22H47.729z"/>
  <g>
    <linearGradient id="SVGID_3_" gradientUnits="userSpaceOnUse" x1="1.1104" y1="12.7646" x2="3.3301" y2="12.7646">
      <stop offset="0" style="stop-color:#FFFFFF;stop-opacity:0"/>
      <stop offset="0.092" style="stop-color:#FFFFFF;stop-opacity:0.1"/>
      <stop offset="0.2025" style="stop-color:#FFFFFF;stop-opacity:0.05"/>
      <stop offset="0.5153" style="stop-color:#FFFFFF;stop-opacity:0.25"/>
      <stop offset="0.816" style="stop-color:#FFFFFF;stop-opacity:0.05"/>
      <stop offset="0.8834" style="stop-color:#FFFFFF;stop-opacity:0.1"/>
      <stop offset="1" style="stop-color:#FFFFFF;stop-opacity:0"/>
    </linearGradient>
    <path fill="url(#SVGID_3_)" d="M3.33,23.31c0,0.61-0.5,1.11-1.11,1.11l0,0c-0.61,0-1.109-0.5-1.109-1.11V2.22&#xD;&#xA;&#x9;&#x9;&#x9;c0-0.61,0.499-1.11,1.109-1.11l0,0c0.61,0,1.11,0.5,1.11,1.11V23.31z"/>
    <linearGradient id="SVGID_4_" gradientUnits="userSpaceOnUse" x1="5.5498" y1="12.7646" x2="7.7695" y2="12.7646">
      <stop offset="0" style="stop-color:#FFFFFF;stop-opacity:0"/>
      <stop offset="0.092" style="stop-color:#FFFFFF;stop-opacity:0.1"/>
      <stop offset="0.2025" style="stop-color:#FFFFFF;stop-opacity:0.05"/>
      <stop offset="0.5153" style="stop-color:#FFFFFF;stop-opacity:0.25"/>
      <stop offset="0.816" style="stop-color:#FFFFFF;stop-opacity:0.05"/>
      <stop offset="0.8834" style="stop-color:#FFFFFF;stop-opacity:0.1"/>
      <stop offset="1" style="stop-color:#FFFFFF;stop-opacity:0"/>
    </linearGradient>
    <path fill="url(#SVGID_4_)" d="M6.66,24.42c0.61,0,1.109-0.5,1.109-1.11V2.22c0-0.61-0.499-1.11-1.109-1.11s-1.11,0.5-1.11,1.11&#xD;&#xA;&#x9;&#x9;&#x9;v21.09C5.55,23.92,6.05,24.42,6.66,24.42z"/>
    <linearGradient id="SVGID_5_" gradientUnits="userSpaceOnUse" x1="9.9902" y1="12.7646" x2="12.21" y2="12.7646">
      <stop offset="0" style="stop-color:#FFFFFF;stop-opacity:0"/>
      <stop offset="0.092" style="stop-color:#FFFFFF;stop-opacity:0.1"/>
      <stop offset="0.2025" style="stop-color:#FFFFFF;stop-opacity:0.05"/>
      <stop offset="0.5153" style="stop-color:#FFFFFF;stop-opacity:0.25"/>
      <stop offset="0.816" style="stop-color:#FFFFFF;stop-opacity:0.05"/>
      <stop offset="0.8834" style="stop-color:#FFFFFF;stop-opacity:0.1"/>
      <stop offset="1" style="stop-color:#FFFFFF;stop-opacity:0"/>
    </linearGradient>
    <path fill="url(#SVGID_5_)" d="M11.1,24.42c0.61,0,1.11-0.5,1.11-1.11V2.22c0-0.61-0.5-1.11-1.11-1.11S9.99,1.609,9.99,2.22v21.09&#xD;&#xA;&#x9;&#x9;&#x9;C9.99,23.92,10.489,24.42,11.1,24.42z"/>
    <linearGradient id="SVGID_6_" gradientUnits="userSpaceOnUse" x1="14.4297" y1="11.585" x2="16.6504" y2="11.585">
      <stop offset="0" style="stop-color:#FFFFFF;stop-opacity:0"/>
      <stop offset="0.092" style="stop-color:#FFFFFF;stop-opacity:0.1"/>
      <stop offset="0.2025" style="stop-color:#FFFFFF;stop-opacity:0.05"/>
      <stop offset="0.5153" style="stop-color:#FFFFFF;stop-opacity:0.25"/>
      <stop offset="0.816" style="stop-color:#FFFFFF;stop-opacity:0.05"/>
      <stop offset="0.8834" style="stop-color:#FFFFFF;stop-opacity:0.1"/>
      <stop offset="1" style="stop-color:#FFFFFF;stop-opacity:0"/>
    </linearGradient>
    <path fill="url(#SVGID_6_)" d="M15.54,1.109c-0.61,0-1.11,0.5-1.11,1.11v19.841l2.221-2.22V2.22&#xD;&#xA;&#x9;&#x9;&#x9;C16.65,1.609,16.15,1.109,15.54,1.109z"/>
    <linearGradient id="SVGID_7_" gradientUnits="userSpaceOnUse" x1="18.8701" y1="9.3652" x2="21.0898" y2="9.3652">
      <stop offset="0" style="stop-color:#FFFFFF;stop-opacity:0"/>
      <stop offset="0.092" style="stop-color:#FFFFFF;stop-opacity:0.1"/>
      <stop offset="0.2025" style="stop-color:#FFFFFF;stop-opacity:0.05"/>
      <stop offset="0.5153" style="stop-color:#FFFFFF;stop-opacity:0.25"/>
      <stop offset="0.816" style="stop-color:#FFFFFF;stop-opacity:0.05"/>
      <stop offset="0.8834" style="stop-color:#FFFFFF;stop-opacity:0.1"/>
      <stop offset="1" style="stop-color:#FFFFFF;stop-opacity:0"/>
    </linearGradient>
    <path fill="url(#SVGID_7_)" d="M19.979,1.109c-0.609,0-1.109,0.5-1.109,1.11v15.401l2.22-2.22V2.22&#xD;&#xA;&#x9;&#x9;&#x9;C21.09,1.609,20.59,1.109,19.979,1.109z"/>
    <linearGradient id="SVGID_8_" gradientUnits="userSpaceOnUse" x1="23.3096" y1="7.145" x2="25.5303" y2="7.145">
      <stop offset="0" style="stop-color:#FFFFFF;stop-opacity:0"/>
      <stop offset="0.092" style="stop-color:#FFFFFF;stop-opacity:0.1"/>
      <stop offset="0.2025" style="stop-color:#FFFFFF;stop-opacity:0.05"/>
      <stop offset="0.5153" style="stop-color:#FFFFFF;stop-opacity:0.25"/>
      <stop offset="0.816" style="stop-color:#FFFFFF;stop-opacity:0.05"/>
      <stop offset="0.8834" style="stop-color:#FFFFFF;stop-opacity:0.1"/>
      <stop offset="1" style="stop-color:#FFFFFF;stop-opacity:0"/>
    </linearGradient>
    <path fill="url(#SVGID_8_)" d="M24.42,1.109c-0.61,0-1.11,0.5-1.11,1.11v10.961h2.221V2.22C25.53,1.609,25.03,1.109,24.42,1.109z"/>
    <linearGradient id="SVGID_9_" gradientUnits="userSpaceOnUse" x1="27.75" y1="9.3652" x2="29.9697" y2="9.3652">
      <stop offset="0" style="stop-color:#FFFFFF;stop-opacity:0"/>
      <stop offset="0.092" style="stop-color:#FFFFFF;stop-opacity:0.1"/>
      <stop offset="0.2025" style="stop-color:#FFFFFF;stop-opacity:0.05"/>
      <stop offset="0.5153" style="stop-color:#FFFFFF;stop-opacity:0.25"/>
      <stop offset="0.816" style="stop-color:#FFFFFF;stop-opacity:0.05"/>
      <stop offset="0.8834" style="stop-color:#FFFFFF;stop-opacity:0.1"/>
      <stop offset="1" style="stop-color:#FFFFFF;stop-opacity:0"/>
    </linearGradient>
    <path fill="url(#SVGID_9_)" d="M29.97,2.22c0-0.61-0.5-1.11-1.109-1.11c-0.61,0-1.11,0.5-1.11,1.11v13.182l2.22,2.22V2.22z"/>
    <linearGradient id="SVGID_10_" gradientUnits="userSpaceOnUse" x1="32.1895" y1="11.585" x2="34.4102" y2="11.585">
      <stop offset="0" style="stop-color:#FFFFFF;stop-opacity:0"/>
      <stop offset="0.092" style="stop-color:#FFFFFF;stop-opacity:0.1"/>
      <stop offset="0.2025" style="stop-color:#FFFFFF;stop-opacity:0.05"/>
      <stop offset="0.5153" style="stop-color:#FFFFFF;stop-opacity:0.25"/>
      <stop offset="0.816" style="stop-color:#FFFFFF;stop-opacity:0.05"/>
      <stop offset="0.8834" style="stop-color:#FFFFFF;stop-opacity:0.1"/>
      <stop offset="1" style="stop-color:#FFFFFF;stop-opacity:0"/>
    </linearGradient>
    <path fill="url(#SVGID_10_)" d="M34.41,2.22c0-0.61-0.5-1.11-1.11-1.11s-1.11,0.5-1.11,1.11v17.621l2.221,2.22V2.22z"/>
    <linearGradient id="SVGID_11_" gradientUnits="userSpaceOnUse" x1="36.6299" y1="12.7646" x2="38.8496" y2="12.7646">
      <stop offset="0" style="stop-color:#FFFFFF;stop-opacity:0"/>
      <stop offset="0.092" style="stop-color:#FFFFFF;stop-opacity:0.1"/>
      <stop offset="0.2025" style="stop-color:#FFFFFF;stop-opacity:0.05"/>
      <stop offset="0.5153" style="stop-color:#FFFFFF;stop-opacity:0.25"/>
      <stop offset="0.816" style="stop-color:#FFFFFF;stop-opacity:0.05"/>
      <stop offset="0.8834" style="stop-color:#FFFFFF;stop-opacity:0.1"/>
      <stop offset="1" style="stop-color:#FFFFFF;stop-opacity:0"/>
    </linearGradient>
    <path fill="url(#SVGID_11_)" d="M37.74,24.42c0.61,0,1.109-0.5,1.109-1.11V2.22c0-0.61-0.499-1.11-1.109-1.11s-1.11,0.5-1.11,1.11&#xD;&#xA;&#x9;&#x9;&#x9;v21.09C36.63,23.92,37.13,24.42,37.74,24.42z"/>
    <linearGradient id="SVGID_12_" gradientUnits="userSpaceOnUse" x1="41.0703" y1="12.7646" x2="43.29" y2="12.7646">
      <stop offset="0" style="stop-color:#FFFFFF;stop-opacity:0"/>
      <stop offset="0.092" style="stop-color:#FFFFFF;stop-opacity:0.1"/>
      <stop offset="0.2025" style="stop-color:#FFFFFF;stop-opacity:0.05"/>
      <stop offset="0.5153" style="stop-color:#FFFFFF;stop-opacity:0.25"/>
      <stop offset="0.816" style="stop-color:#FFFFFF;stop-opacity:0.05"/>
      <stop offset="0.8834" style="stop-color:#FFFFFF;stop-opacity:0.1"/>
      <stop offset="1" style="stop-color:#FFFFFF;stop-opacity:0"/>
    </linearGradient>
    <path fill="url(#SVGID_12_)" d="M42.18,1.109c-0.61,0-1.109,0.5-1.109,1.11v21.09c0,0.61,0.499,1.11,1.109,1.11&#xD;&#xA;&#x9;&#x9;&#x9;s1.11-0.5,1.11-1.11V2.22C43.29,1.609,42.79,1.109,42.18,1.109z"/>
    <linearGradient id="SVGID_13_" gradientUnits="userSpaceOnUse" x1="45.5098" y1="12.7646" x2="47.7295" y2="12.7646">
      <stop offset="0" style="stop-color:#FFFFFF;stop-opacity:0"/>
      <stop offset="0.092" style="stop-color:#FFFFFF;stop-opacity:0.1"/>
      <stop offset="0.2025" style="stop-color:#FFFFFF;stop-opacity:0.05"/>
      <stop offset="0.5153" style="stop-color:#FFFFFF;stop-opacity:0.25"/>
      <stop offset="0.816" style="stop-color:#FFFFFF;stop-opacity:0.05"/>
      <stop offset="0.8834" style="stop-color:#FFFFFF;stop-opacity:0.1"/>
      <stop offset="1" style="stop-color:#FFFFFF;stop-opacity:0"/>
    </linearGradient>
    <path fill="url(#SVGID_13_)" d="M47.729,23.31c0,0.61-0.499,1.11-1.109,1.11l0,0c-0.61,0-1.11-0.5-1.11-1.11V2.22&#xD;&#xA;&#x9;&#x9;&#x9;c0-0.61,0.5-1.11,1.11-1.11l0,0c0.61,0,1.109,0.5,1.109,1.11V23.31z"/>
  </g>
  <linearGradient id="SVGID_14_" gradientUnits="userSpaceOnUse" x1="13.875" y1="27.0557" x2="34.9648" y2="27.0557">
    <stop offset="0" style="stop-color:#000000;stop-opacity:0.5"/>
    <stop offset="0.05" style="stop-color:#000000;stop-opacity:0.5"/>
    <stop offset="0.5" style="stop-color:#FFFFFF;stop-opacity:0.5"/>
    <stop offset="0.95" style="stop-color:#000000;stop-opacity:0.5"/>
    <stop offset="1" style="stop-color:#000000;stop-opacity:0.5"/>
  </linearGradient>
  <path fill="url(#SVGID_14_)" d="M32.189,19.841H16.65l2.22-2.22h11.1L32.189,19.841z M25.53,13.181H23.31l-2.22,2.221h6.66&#xD;&#xA;&#x9;&#x9;L25.53,13.181z M13.875,37.601h21.09v-2.22h-21.09V37.601z M13.875,40.931h21.09v-1.109h-21.09V40.931z M34.41,22.061H14.43&#xD;&#xA;&#x9;&#x9;l-0.555,0.556v0.693v0.972h21.09V23.31v-0.693L34.41,22.061z M13.875,28.721h21.09v-2.22h-21.09V28.721z M13.875,33.161h21.09&#xD;&#xA;&#x9;&#x9;v-2.22h-21.09V33.161z"/>
  <linearGradient id="SVGID_15_" gradientUnits="userSpaceOnUse" x1="24.4194" y1="15.4707" x2="24.4194" y2="17.6045">
    <stop offset="0" style="stop-color:#FFFFFF;stop-opacity:0"/>
    <stop offset="0.092" style="stop-color:#FFFFFF;stop-opacity:0.1"/>
    <stop offset="0.2025" style="stop-color:#FFFFFF;stop-opacity:0.05"/>
    <stop offset="0.5153" style="stop-color:#FFFFFF;stop-opacity:0.25"/>
    <stop offset="0.816" style="stop-color:#FFFFFF;stop-opacity:0.05"/>
    <stop offset="0.8834" style="stop-color:#FFFFFF;stop-opacity:0.1"/>
    <stop offset="1" style="stop-color:#FFFFFF;stop-opacity:0"/>
  </linearGradient>
  <polygon fill="url(#SVGID_15_)" points="27.75,15.401 21.09,15.401 18.87,17.621 29.97,17.621 &#x9;"/>
  <linearGradient id="SVGID_16_" gradientUnits="userSpaceOnUse" x1="24.4194" y1="19.876" x2="24.4194" y2="22.0635">
    <stop offset="0" style="stop-color:#FFFFFF;stop-opacity:0"/>
    <stop offset="0.092" style="stop-color:#FFFFFF;stop-opacity:0.1"/>
    <stop offset="0.2025" style="stop-color:#FFFFFF;stop-opacity:0.05"/>
    <stop offset="0.5153" style="stop-color:#FFFFFF;stop-opacity:0.25"/>
    <stop offset="0.816" style="stop-color:#FFFFFF;stop-opacity:0.05"/>
    <stop offset="0.8834" style="stop-color:#FFFFFF;stop-opacity:0.1"/>
    <stop offset="1" style="stop-color:#FFFFFF;stop-opacity:0"/>
  </linearGradient>
  <polygon fill="url(#SVGID_16_)" points="32.189,19.841 16.65,19.841 14.43,22.061 34.41,22.061 &#x9;"/>
  <linearGradient id="SVGID_17_" gradientUnits="userSpaceOnUse" x1="24.4194" y1="24.3027" x2="24.4194" y2="26.4993">
    <stop offset="0" style="stop-color:#FFFFFF;stop-opacity:0"/>
    <stop offset="0.092" style="stop-color:#FFFFFF;stop-opacity:0.1"/>
    <stop offset="0.2025" style="stop-color:#FFFFFF;stop-opacity:0.05"/>
    <stop offset="0.5153" style="stop-color:#FFFFFF;stop-opacity:0.25"/>
    <stop offset="0.816" style="stop-color:#FFFFFF;stop-opacity:0.05"/>
    <stop offset="0.8834" style="stop-color:#FFFFFF;stop-opacity:0.1"/>
    <stop offset="1" style="stop-color:#FFFFFF;stop-opacity:0"/>
  </linearGradient>
  <path fill="url(#SVGID_17_)" d="M34.965,24.281c0.61,0,1.11,0.499,1.11,1.109l0,0c0,0.61-0.5,1.11-1.11,1.11h-21.09&#xD;&#xA;&#x9;&#x9;c-0.61,0-1.11-0.5-1.11-1.11l0,0c0-0.61,0.5-1.109,1.11-1.109H34.965z"/>
  <linearGradient id="SVGID_18_" gradientUnits="userSpaceOnUse" x1="24.4194" y1="28.7402" x2="24.4194" y2="30.9386">
    <stop offset="0" style="stop-color:#FFFFFF;stop-opacity:0"/>
    <stop offset="0.092" style="stop-color:#FFFFFF;stop-opacity:0.1"/>
    <stop offset="0.2025" style="stop-color:#FFFFFF;stop-opacity:0.05"/>
    <stop offset="0.5153" style="stop-color:#FFFFFF;stop-opacity:0.25"/>
    <stop offset="0.816" style="stop-color:#FFFFFF;stop-opacity:0.05"/>
    <stop offset="0.8834" style="stop-color:#FFFFFF;stop-opacity:0.1"/>
    <stop offset="1" style="stop-color:#FFFFFF;stop-opacity:0"/>
  </linearGradient>
  <path fill="url(#SVGID_18_)" d="M34.965,28.721c0.61,0,1.11,0.5,1.11,1.11l0,0c0,0.61-0.5,1.11-1.11,1.11h-21.09&#xD;&#xA;&#x9;&#x9;c-0.61,0-1.11-0.5-1.11-1.11l0,0c0-0.61,0.5-1.11,1.11-1.11H34.965z"/>
  <linearGradient id="SVGID_19_" gradientUnits="userSpaceOnUse" x1="24.4194" y1="33.1787" x2="24.4194" y2="35.3596">
    <stop offset="0" style="stop-color:#FFFFFF;stop-opacity:0"/>
    <stop offset="0.092" style="stop-color:#FFFFFF;stop-opacity:0.1"/>
    <stop offset="0.2025" style="stop-color:#FFFFFF;stop-opacity:0.05"/>
    <stop offset="0.5153" style="stop-color:#FFFFFF;stop-opacity:0.25"/>
    <stop offset="0.816" style="stop-color:#FFFFFF;stop-opacity:0.05"/>
    <stop offset="0.8834" style="stop-color:#FFFFFF;stop-opacity:0.1"/>
    <stop offset="1" style="stop-color:#FFFFFF;stop-opacity:0"/>
  </linearGradient>
  <path fill="url(#SVGID_19_)" d="M34.965,33.161c0.61,0,1.11,0.5,1.11,1.109l0,0c0,0.61-0.5,1.11-1.11,1.11h-21.09&#xD;&#xA;&#x9;&#x9;c-0.61,0-1.11-0.5-1.11-1.11l0,0c0-0.609,0.5-1.109,1.11-1.109H34.965z"/>
  <linearGradient id="SVGID_20_" gradientUnits="userSpaceOnUse" x1="24.4194" y1="37.6416" x2="24.4194" y2="39.84">
    <stop offset="0" style="stop-color:#FFFFFF;stop-opacity:0"/>
    <stop offset="0.092" style="stop-color:#FFFFFF;stop-opacity:0.1"/>
    <stop offset="0.2025" style="stop-color:#FFFFFF;stop-opacity:0.05"/>
    <stop offset="0.5153" style="stop-color:#FFFFFF;stop-opacity:0.25"/>
    <stop offset="0.816" style="stop-color:#FFFFFF;stop-opacity:0.05"/>
    <stop offset="0.8834" style="stop-color:#FFFFFF;stop-opacity:0.1"/>
    <stop offset="1" style="stop-color:#FFFFFF;stop-opacity:0"/>
  </linearGradient>
  <path fill="url(#SVGID_20_)" d="M34.965,37.601c0.61,0,1.11,0.5,1.11,1.11l0,0c0,0.61-0.5,1.11-1.11,1.11h-21.09&#xD;&#xA;&#x9;&#x9;c-0.61,0-1.11-0.5-1.11-1.11l0,0c0-0.61,0.5-1.11,1.11-1.11H34.965z"/>
</svg>