<svg version="1.2" baseProfile="tiny" id="EdgeSVG_HR615" x="0px" y="0px" width="48.84px" height="40.931px" viewBox="0 0 48.84 40.931" xmlns:xlink="http://www.w3.org/1999/xlink" xmlns="http://www.w3.org/2000/svg">
  <linearGradient id="SVGID_1_" gradientUnits="userSpaceOnUse" x1="0" y1="20.4648" x2="48.8398" y2="20.4648">
    <stop offset="0.2025" style="stop-color:#000000;stop-opacity:0.5"/>
    <stop offset="0.7783" style="stop-color:#000000;stop-opacity:0.5"/>
  </linearGradient>
  <path fill="url(#SVGID_1_)" d="M48.542,1.109C48.158,0.447,47.44,0,46.62,0s-1.538,0.447-1.922,1.109h-0.597&#xD;&#xA;&#x9;&#x9;C43.718,0.447,43.001,0,42.18,0c-0.82,0-1.538,0.447-1.922,1.109h-0.596C39.278,0.447,38.561,0,37.74,0&#xD;&#xA;&#x9;&#x9;c-0.821,0-1.538,0.447-1.922,1.109h-0.597C34.838,0.447,34.12,0,33.3,0s-1.538,0.447-1.922,1.109h-0.596&#xD;&#xA;&#x9;&#x9;C30.398,0.447,29.681,0,28.86,0c-0.821,0-1.539,0.447-1.922,1.109h-0.597C25.958,0.447,25.24,0,24.42,0s-1.538,0.447-1.922,1.109&#xD;&#xA;&#x9;&#x9;h-0.597C21.518,0.447,20.8,0,19.979,0c-0.819,0-1.537,0.447-1.922,1.109h-0.596C17.077,0.447,16.36,0,15.54,0&#xD;&#xA;&#x9;&#x9;s-1.538,0.447-1.922,1.109h-0.597C12.638,0.447,11.92,0,11.1,0C10.28,0,9.563,0.447,9.178,1.109H8.582C8.197,0.447,7.479,0,6.66,0&#xD;&#xA;&#x9;&#x9;C5.84,0,5.122,0.447,4.738,1.109H4.142C3.758,0.447,3.04,0,2.22,0S0.683,0.447,0.298,1.109H0V24.42h0.298&#xD;&#xA;&#x9;&#x9;c0.385,0.663,1.102,1.109,1.922,1.109s1.538-0.446,1.922-1.109h0.597c0.384,0.663,1.102,1.109,1.922,1.109&#xD;&#xA;&#x9;&#x9;c0.819,0,1.537-0.446,1.922-1.109h0.596c0.385,0.663,1.103,1.109,1.922,1.109c0.195,0,0.384-0.029,0.564-0.075&#xD;&#xA;&#x9;&#x9;c0.022,0.792,0.455,1.483,1.101,1.858v0.597c-0.663,0.385-1.109,1.103-1.109,1.922s0.446,1.537,1.109,1.922v0.596&#xD;&#xA;&#x9;&#x9;c-0.663,0.385-1.109,1.103-1.109,1.922c0,0.821,0.446,1.539,1.109,1.922v0.597c-0.663,0.384-1.109,1.102-1.109,1.922&#xD;&#xA;&#x9;&#x9;s0.446,1.538,1.109,1.922v0.298h23.311v-0.298c0.663-0.384,1.109-1.102,1.109-1.922s-0.446-1.538-1.109-1.922v-0.597&#xD;&#xA;&#x9;&#x9;c0.663-0.383,1.109-1.101,1.109-1.922c0-0.819-0.446-1.537-1.109-1.922v-0.596c0.663-0.385,1.109-1.103,1.109-1.922&#xD;&#xA;&#x9;&#x9;s-0.446-1.537-1.109-1.922v-0.597c0.646-0.375,1.078-1.066,1.101-1.858c0.182,0.046,0.369,0.075,0.564,0.075&#xD;&#xA;&#x9;&#x9;c0.82,0,1.538-0.446,1.922-1.109h0.596c0.384,0.663,1.102,1.109,1.922,1.109c0.821,0,1.538-0.446,1.922-1.109h0.597&#xD;&#xA;&#x9;&#x9;c0.384,0.663,1.102,1.109,1.922,1.109s1.538-0.446,1.922-1.109h0.298V1.109H48.542z"/>
</svg>