<svg version="1.2" baseProfile="tiny" viewBox="0 0 56.021 56.001" xmlns:xlink="http://www.w3.org/1999/xlink" xmlns="http://www.w3.org/2000/svg">
<path style="fill:#ffffff;" d="M55.821,55.5681C55.8272,55.5592,55.8328,55.5508,55.8378,55.5429C55.9443,55.385,56.021,55.2052,56.021,55.0003C56.021,54.942,56.0092,54.8888,56.0003,54.8339L56.0003,1.0002C56.0003,0.5959,55.7571,0.2307,55.3829,0.0762C55.0093,-0.079,54.579,0.0062,54.2928,0.2929L27.9999,26.5859L1.707,0.2929C1.4213,0.0067,0.991,-0.0778,0.6168,0.0762C0.2431,0.2307,0.0,0.5959,0.0,1.0002L0.0,55.0003C0.0,55.0159,0.0062,55.0299,0.0067,55.0462C0.0090,55.096,0.0202,55.1442,0.0291,55.1929C0.0381,55.2422,0.0482,55.2909,0.0639,55.3379C0.07,55.3531,0.07,55.3682,0.0762,55.3828C0.0891,55.4119,0.1092,55.436,0.1249,55.4639C0.1479,55.5088,0.172,55.553,0.2028,55.5939C0.2319,55.6331,0.265,55.6672,0.3003,55.7008C0.3328,55.7339,0.3669,55.7669,0.4062,55.7972C0.447,55.828,0.4907,55.852,0.5361,55.875C0.5641,55.8912,0.5882,55.9108,0.6168,55.9243C0.6291,55.9288,0.6409,55.9271,0.6538,55.9321C0.7641,55.9719,0.879,55.9999,1.0,55.9999L54.9953,55.9999C54.9969,55.9999,54.9981,56.001,54.9997,56.001C55.002,56.001,55.0031,55.9999,55.0048,55.9999C55.0109,55.9999,55.016,56.001,55.0199,55.9999C55.2322,55.9999,55.4182,55.9192,55.5812,55.8072C55.602,55.791,55.6272,55.7798,55.6468,55.7619C55.7151,55.7048,55.77,55.6409,55.821,55.5681M53.9998,52.5849L29.4138,27.9999L53.9998,3.4149L53.9998,52.5849M1.9999,3.4149L26.5859,27.9999L1.9999,52.5861L1.9999,3.4149M27.9999,29.414L52.5852,54.0001L3.4139,54.0001L3.4139,54.0001L27.9999,29.414Z"/>
</svg>